<?xml version="1.0" standalone="no"?><!DOCTYPE svg PUBLIC "-//W3C//DTD SVG 1.1//EN" "http://www.w3.org/Graphics/SVG/1.1/DTD/svg11.dtd"><svg class="icon" width="200px" height="191.04px" viewBox="0 0 1072 1024" version="1.1" xmlns="http://www.w3.org/2000/svg"><path fill="#ffffff" d="M727.850667 865.664a136.96 136.96 0 0 0 136.789333-136.832 136.96 136.96 0 0 0-136.789333-136.789333 136.96 136.96 0 0 0-136.832 136.789333 136.96 136.96 0 0 0 136.832 136.832z m222.122666-136.832a220.842667 220.842667 0 0 1-39.509333 126.165333l56.533333 56.533334-60.330666 60.330666-57.301334-57.301333a220.885333 220.885333 0 0 1-243.626666-0.341333l-57.6 57.642666-60.373334-60.330666 57.045334-57.045334a220.970667 220.970667 0 0 1-39.125334-125.653333 222.378667 222.378667 0 0 1 222.165334-222.165333 222.378667 222.378667 0 0 1 222.122666 222.165333z m-331.136-237.994667l-117.333333 117.333334-60.330667-60.330667 117.333334-117.333333 60.330666 60.330666z m332.885334 114.816l-114.858667-114.816 60.330667-60.330666 114.858666 114.816-60.330666 60.330666zM170.666667 170.666667h597.333333v213.333333h85.333333V128a42.666667 42.666667 0 0 0-42.666666-42.666667H128a42.666667 42.666667 0 0 0-42.666667 42.666667v725.333333a42.666667 42.666667 0 0 0 42.666667 42.666667h298.666667v-85.333333H170.666667V170.666667z" /></svg>