<?xml version="1.0" standalone="no"?><!DOCTYPE svg PUBLIC "-//W3C//DTD SVG 1.1//EN" "http://www.w3.org/Graphics/SVG/1.1/DTD/svg11.dtd"><svg class="icon" width="200px" height="200.00px" viewBox="0 0 1024 1024" version="1.1" xmlns="http://www.w3.org/2000/svg"><path fill="#ffffff" d="M645.802667 545.834667L519.253333 419.328l-60.330666 60.330667 53.674666 53.674666H85.333333v85.333334h427.264l-53.632 53.632 60.330667 60.330666 126.506667-126.464a42.666667 42.666667 0 0 0 0-60.373333M170.666667 341.333333v149.333334H85.333333V298.666667c0-7.850667 2.133333-15.701333 6.485334-22.613334l106.666666-170.666666c7.808-12.458667 21.461333-20.053333 36.181334-20.053334h554.666666a42.666667 42.666667 0 0 1 36.181334 20.053334l106.666666 170.666666a42.538667 42.538667 0 0 1 6.4 22.613334H938.666667v597.333333a42.666667 42.666667 0 0 1-42.666667 42.666667H128a42.666667 42.666667 0 0 1-42.666667-42.666667v-234.666667h85.333334V853.333333h682.666666V341.333333H170.666667z m34.304-85.333333h614.058666l-53.333333-85.333333H258.304l-53.333333 85.333333z" /></svg>