<?xml version="1.0" standalone="no"?><!DOCTYPE svg PUBLIC "-//W3C//DTD SVG 1.1//EN" "http://www.w3.org/Graphics/SVG/1.1/DTD/svg11.dtd"><svg class="icon" width="200px" height="200.00px" viewBox="0 0 1024 1024" version="1.1" xmlns="http://www.w3.org/2000/svg"><path fill="#ffffff" d="M128 85.333333h682.666667a42.666667 42.666667 0 0 1 42.666666 42.666667v384h-85.333333V170.666667H170.666667v640h161.621333v85.333333H128a42.666667 42.666667 0 0 1-42.666667-42.666667V128a42.666667 42.666667 0 0 1 42.666667-42.666667z m128 256V256h426.666667v85.333333H256z m0 170.666667v-85.333333h298.666667v85.333333H256zM917.333333 597.333333a42.666667 42.666667 0 0 1 42.666667 42.666667v298.666667a42.666667 42.666667 0 0 1-42.666667 42.666666h-213.333333l21.333333-85.333333 149.333334-21.333333v-170.666667L725.333333 682.666667l-21.333333-85.333334h213.333333zM469.333333 874.666667l149.333334 21.333333 21.333333 85.333333h-213.333333a42.666667 42.666667 0 0 1-42.666667-42.666666v-298.666667a42.666667 42.666667 0 0 1 42.666667-42.666667h213.333333l-21.333333 85.333334-149.333334 21.333333v170.666667z m85.333334-64v-42.666667h234.666666v42.666667H554.666667z" /></svg>