<?xml version="1.0" standalone="no"?><!DOCTYPE svg PUBLIC "-//W3C//DTD SVG 1.1//EN" "http://www.w3.org/Graphics/SVG/1.1/DTD/svg11.dtd"><svg class="icon" width="200px" height="181.88px" viewBox="0 0 1126 1024" version="1.1" xmlns="http://www.w3.org/2000/svg"><path fill="#ffffff" d="M353.877333 332.544l60.330667 60.330667L337.706667 469.333333l76.501333 76.501334-60.330667 60.330666-106.666666-106.666666a42.666667 42.666667 0 0 1 0-60.330667l106.666666-106.666667z m230.997334 273.664l-60.330667-60.330667 76.501333-76.501333-76.501333-76.501333 60.330667-60.330667 106.666666 106.666667a42.666667 42.666667 0 0 1 0 60.330666l-106.666666 106.666667zM170.666667 170.666667v640.085333h469.376v85.333333h-512a42.666667 42.666667 0 0 1-42.709334-42.666666V128a42.666667 42.666667 0 0 1 42.666667-42.666667h682.752a42.666667 42.666667 0 0 1 42.666667 42.666667L853.333333 426.666667h-85.333333l0.085333-256H170.666667zM991.786667 673.877333l-150.869334-150.826666a42.624 42.624 0 0 0-60.330666 0l-150.869334 150.826666 60.330667 60.373334 78.037333-78.08v282.581333h85.333334V656.213333l78.037333 78.037334 60.330667-60.373334z" /></svg>