<?xml version="1.0" standalone="no"?><!DOCTYPE svg PUBLIC "-//W3C//DTD SVG 1.1//EN" "http://www.w3.org/Graphics/SVG/1.1/DTD/svg11.dtd"><svg class="icon" width="200px" height="191.04px" viewBox="0 0 1072 1024" version="1.1" xmlns="http://www.w3.org/2000/svg"><path fill="#ffffff" d="M853.333333 853.333333a21.333333 21.333333 0 1 0 0-42.666666h-85.333333v42.666666h85.333333z m-21.333333-170.666666H768v42.666666h64a21.333333 21.333333 0 1 0 0-42.666666z m93.653333 71.338666c20.992 19.498667 34.346667 47.104 34.346667 77.994667A106.666667 106.666667 0 0 1 853.333333 938.666667h-170.666666v-320a21.333333 21.333333 0 0 1 21.333333-21.333334h128a106.666667 106.666667 0 0 1 106.666667 106.666667c0 18.218667-4.949333 35.072-13.013334 50.005333z m-285.781333-55.296a106.368 106.368 0 0 1-49.706667 95.274667L648.106667 938.666667H554.666667l-79.488-198.698667A10.666667 10.666667 0 0 1 485.12 725.333333H533.333333a21.333333 21.333333 0 1 0 0-42.666666H469.333333v256H384v-320a21.333333 21.333333 0 0 1 21.333333-21.333334h123.221334c57.685333 0 108.544 43.733333 111.317333 101.376zM320 597.333333a21.333333 21.333333 0 0 1 21.333333 21.333334V938.666667H256v-153.6l-21.333333 46.933333h-85.333334L128 785.066667V938.666667H42.666667v-320a21.333333 21.333333 0 0 1 21.333333-21.333334h50.261333c8.362667 0 15.957333 4.864 19.456 12.501334L192 738.133333l58.325333-128.298666A21.376 21.376 0 0 1 269.738667 597.333333H320zM170.666667 295.125333V554.666667H85.333333V268.202667c0-16.469333 9.429333-31.445333 24.32-38.528l384-182.869334a42.581333 42.581333 0 0 1 36.693334 0l384 182.869334c14.890667 7.082667 24.32 22.058667 24.32 38.528V554.666667h-85.333334V295.125333l-341.333333-162.56-341.333333 162.56z m82.346666 3.626667L512 422.058667l258.986667-123.306667 36.693333 77.056-277.333333 132.053333a42.325333 42.325333 0 0 1-36.693334 0l-277.333333-132.053333 36.693333-77.056z" /></svg>