<?xml version="1.0" standalone="no"?><!DOCTYPE svg PUBLIC "-//W3C//DTD SVG 1.1//EN" "http://www.w3.org/Graphics/SVG/1.1/DTD/svg11.dtd"><svg class="icon" width="200px" height="200.00px" viewBox="0 0 1024 1024" version="1.1" xmlns="http://www.w3.org/2000/svg"><path fill="#ffffff" d="M491.264 135.082667l298.624 179.2v177.152h85.333333V365.482667l20.693334 12.416 43.946666-73.173334-426.666666-256a42.581333 42.581333 0 0 0-43.904 0L42.666667 304.768l43.904 73.173333 20.693333-12.373333v509.098667a42.666667 42.666667 0 0 0 42.666667 42.666666h301.312v-85.333333H192.597333V314.282667l298.666667-179.2zM896 896h-170.666667v-42.666667h-85.333333v42.666667h-42.666667v-85.333333h298.666667v85.333333z m-298.666667-256h298.666667v85.333333h-170.666667v-42.666666h-85.333333v42.666666h-42.666667v-85.333333z m341.333334-85.333333h-384a42.666667 42.666667 0 0 0-42.666667 42.666666v341.333334a42.666667 42.666667 0 0 0 42.666667 42.666666h384a42.666667 42.666667 0 0 0 42.624-42.666666v-341.333334a42.666667 42.666667 0 0 0-42.666667-42.666666z" /></svg>