<?xml version="1.0" standalone="no"?><!DOCTYPE svg PUBLIC "-//W3C//DTD SVG 1.1//EN" "http://www.w3.org/Graphics/SVG/1.1/DTD/svg11.dtd"><svg class="icon" width="200px" height="182.69px" viewBox="0 0 1121 1024" version="1.1" xmlns="http://www.w3.org/2000/svg"><path fill="#ffffff" d="M1004.8 304.768l-426.666667-256a42.709333 42.709333 0 0 0-43.946666 0l-426.666667 256 43.946667 73.173333 404.736-242.858666 298.666666 179.2L853.333333 853.333333H213.333333v85.333334h682.666667a42.666667 42.666667 0 0 0 42.666667-42.666667l1.536-530.517333 20.693333 12.416 43.946667-73.130667zM513.536 448V554.666667H188.330667l78.037333-78.037334-60.330667-60.330666-150.869333 150.869333a42.624 42.624 0 0 0 0 60.330667l150.869333 150.826666 60.330667-60.330666L188.330667 640h325.205333v106.666667h85.333333v-298.666667h-85.333333z" /></svg>