<?xml version="1.0" standalone="no"?><!DOCTYPE svg PUBLIC "-//W3C//DTD SVG 1.1//EN" "http://www.w3.org/Graphics/SVG/1.1/DTD/svg11.dtd"><svg class="icon" width="200px" height="200.00px" viewBox="0 0 1024 1024" version="1.1" xmlns="http://www.w3.org/2000/svg"><path fill="#ffffff" d="M853.333333 516.309333c0 180.181333-134.101333 337.450667-320 376.874667C347.434667 853.76 213.333333 696.490667 213.333333 516.266667v-302.08c131.626667-10.026667 272.469333-62.08 320-80.896 47.530667 18.816 188.373333 70.826667 320 80.938666v302.08z m42.666667-387.669333c-150.570667 0-344.32-81.792-346.24-82.602667a41.856 41.856 0 0 0-32.853333 0C514.986667 46.848 321.194667 128.64 170.666667 128.64c-23.552 0-42.666667 19.584-42.666667 43.648v344.021333c0 224.682667 167.168 419.925333 397.44 464.298667a43.52 43.52 0 0 0 15.786667 0C771.498667 936.234667 938.666667 740.992 938.666667 516.266667V172.288c0-24.064-19.114667-43.648-42.666667-43.648zM298.666667 682.666667v-213.333334h85.333333v213.333334H298.666667z m128 0V298.666667h85.333333v384h-85.333333z m128 0v-256h85.333333v256h-85.333333z m128 0V341.333333h85.333333v341.333334h-85.333333z" /></svg>