<?xml version="1.0" standalone="no"?><!DOCTYPE svg PUBLIC "-//W3C//DTD SVG 1.1//EN" "http://www.w3.org/Graphics/SVG/1.1/DTD/svg11.dtd"><svg class="icon" width="200px" height="191.04px" viewBox="0 0 1072 1024" version="1.1" xmlns="http://www.w3.org/2000/svg"><path fill="#ffffff" d="M85.333333 85.333333h682.666667a42.666667 42.666667 0 0 1 42.666667 42.666667v298.666667h-85.333334V170.666667H128v640h341.333333v85.333333H85.333333a42.666667 42.666667 0 0 1-42.666666-42.666667V128a42.666667 42.666667 0 0 1 42.666666-42.666667z m128 256V256h426.666667v85.333333H213.333333z m0 170.666667v-85.333333h298.666667v85.333333H213.333333zM677.504 621.269333c0-48.469333 39.424-87.936 87.893333-87.936 48.512 0 87.936 39.466667 87.936 87.936V682.666667h-175.829333v-61.397334zM917.333333 682.666667v-61.397334A152.106667 152.106667 0 0 0 765.397333 469.333333a152.106667 152.106667 0 0 0-151.893333 151.936V682.666667H597.333333a42.666667 42.666667 0 0 0-42.666666 42.666666v213.333334a42.666667 42.666667 0 0 0 42.666666 42.666666h341.333334a42.666667 42.666667 0 0 0 42.666666-42.666666v-213.333334a42.666667 42.666667 0 0 0-42.666666-42.666666h-21.333334z" /></svg>