<?xml version="1.0" standalone="no"?><!DOCTYPE svg PUBLIC "-//W3C//DTD SVG 1.1//EN" "http://www.w3.org/Graphics/SVG/1.1/DTD/svg11.dtd"><svg class="icon" width="200px" height="200.00px" viewBox="0 0 1024 1024" version="1.1" xmlns="http://www.w3.org/2000/svg"><path fill="#ffffff" d="M640 512h-128v128h-85.333333v-128H298.666667v-85.333333h110.336L321.834667 339.498667l60.330666-60.330667 87.722667 87.68 87.168-87.168L617.386667 340.053333 530.773333 426.666667H640v85.333333zM170.666667 170.666667v640h300.245333v85.333333H129.066667C105.514667 896 85.333333 876.885333 85.333333 853.333333V128a42.666667 42.666667 0 0 1 42.666667-42.666667h682.666667a42.666667 42.666667 0 0 1 42.666666 42.666667v298.666667h-85.333333V170.666667H170.666667zM960 853.333333c-5.76 0-24.533333-1.322667-24.533333-18.133333V729.6c0-22.357333-4.352-44.16-12.970667-64.725333a168.533333 168.533333 0 0 0-47.616-64.213334 166.528 166.528 0 0 0-51.456-29.098666c-4.181333-1.493333-8.533333-2.218667-12.757333-3.285334V512h-85.333334v56.277333c-4.224 1.066667-8.576 1.792-12.714666 3.242667a168.32 168.32 0 0 0-99.114667 93.397333 166.314667 166.314667 0 0 0-12.970667 64.682667v105.6c0 16.810667-18.773333 18.133333-24.533333 18.133333H554.666667v85.333334h170.666666v42.666666h85.333334v-42.666666h170.666666v-85.333334h-21.333333z" /></svg>