<?xml version="1.0" standalone="no"?><!DOCTYPE svg PUBLIC "-//W3C//DTD SVG 1.1//EN" "http://www.w3.org/Graphics/SVG/1.1/DTD/svg11.dtd"><svg class="icon" width="200px" height="200.00px" viewBox="0 0 1024 1024" version="1.1" xmlns="http://www.w3.org/2000/svg"><path fill="#ffffff" d="M170.666667 170.666667v640h384v85.333333H128a42.666667 42.666667 0 0 1-42.666667-42.666667V128a42.666667 42.666667 0 0 1 42.666667-42.666667h682.666667a42.666667 42.666667 0 0 1 42.666666 42.666667v426.666667h-85.333333V170.666667H170.666667z m420.650666 192a191.744 191.744 0 0 1 48.64 127.744c0 105.856-86.101333 192-192 192A192.213333 192.213333 0 0 1 256 490.410667c0-69.248 37.504-133.376 97.834667-167.338667l41.898666 74.325333A107.008 107.008 0 0 0 341.333333 490.410667c0 58.794667 47.829333 106.666667 106.666667 106.666666a106.794667 106.794667 0 0 0 79.616-177.664A105.685333 105.685333 0 0 0 512 405.248v42.410667h-85.333333V281.984L634.709333 256l10.581334 84.650667-67.413334 8.448c4.693333 4.266667 9.173333 8.746667 13.44 13.525333zM641.792 657.664L750.336 768H640v83.498667h128v128h85.333333v-128h128V768h-109.269333l107.946667-109.781333-60.330667-60.330667-108.501333 108.458667L702.165333 597.333333z" /></svg>