<?xml version="1.0" standalone="no"?><!DOCTYPE svg PUBLIC "-//W3C//DTD SVG 1.1//EN" "http://www.w3.org/Graphics/SVG/1.1/DTD/svg11.dtd"><svg class="icon" width="200px" height="200.00px" viewBox="0 0 1024 1024" version="1.1" xmlns="http://www.w3.org/2000/svg"><path fill="#ffffff" d="M853.333333 896H341.333333V298.666667h512v597.333333zM256 768H170.666667V128h512v85.333333H298.666667a42.666667 42.666667 0 0 0-42.666667 42.666667v512zM768 213.333333V85.333333a42.666667 42.666667 0 0 0-42.666667-42.666666H128a42.666667 42.666667 0 0 0-42.666667 42.666666v725.333334a42.666667 42.666667 0 0 0 42.666667 42.666666h128v85.333334a42.666667 42.666667 0 0 0 42.666667 42.666666h597.333333a42.666667 42.666667 0 0 0 42.666667-42.666666V256a42.666667 42.666667 0 0 0-42.666667-42.666667h-128zM746.666667 574.165333h-87.893334l86.613334-86.613333-60.330667-60.373333-87.168 87.168L510.165333 426.666667l-60.330666 60.330666 87.168 87.168H448v85.333334H554.666667v106.666666h85.333333v-106.666666h106.666667z" /></svg>