<?xml version="1.0" standalone="no"?><!DOCTYPE svg PUBLIC "-//W3C//DTD SVG 1.1//EN" "http://www.w3.org/Graphics/SVG/1.1/DTD/svg11.dtd"><svg class="icon" width="200px" height="200.00px" viewBox="0 0 1024 1024" version="1.1" xmlns="http://www.w3.org/2000/svg"><path fill="#ffffff" d="M512 896c-211.754667 0-384-172.288-384-384 0-211.754667 172.245333-384 384-384 211.712 0 384 172.245333 384 384 0 211.712-172.288 384-384 384m0-853.333333C253.184 42.666667 42.666667 253.184 42.666667 512s210.517333 469.333333 469.333333 469.333333 469.333333-210.517333 469.333333-469.333333S770.816 42.666667 512 42.666667M490.666667 640v-85.333333h85.333333a42.709333 42.709333 0 0 1 0 85.333333h-85.333333z m85.333333-213.333333a21.333333 21.333333 0 0 1 0 42.666666h-85.333333v-42.666666h85.333333z m132.053333 79.189333c10.837333-16.682667 17.28-36.48 17.28-57.856C725.333333 389.162667 677.504 341.333333 618.666667 341.333333V256h-85.333334v85.333333h-42.666666V256h-85.333334v85.333333H298.666667v85.333334h64v213.333333H298.666667v85.333333h106.666666v85.333334h85.333334v-85.333334h42.666666v85.333334h85.333334v-85.333334c70.570667 0 128-57.386667 128-128a127.573333 127.573333 0 0 0-38.613334-91.477333z" /></svg>