<?xml version="1.0" standalone="no"?><!DOCTYPE svg PUBLIC "-//W3C//DTD SVG 1.1//EN" "http://www.w3.org/Graphics/SVG/1.1/DTD/svg11.dtd"><svg class="icon" width="200px" height="191.40px" viewBox="0 0 1070 1024" version="1.1" xmlns="http://www.w3.org/2000/svg"><path fill="#ffffff" d="M128 384v469.333333h213.333333v85.333334H85.333333a42.666667 42.666667 0 0 1-42.666666-42.666667V213.333333a42.666667 42.666667 0 0 1 42.666666-42.666666h128V85.333333h128v85.333334h256V85.333333h128v85.333334h128a42.666667 42.666667 0 0 1 42.666667 42.666666v384h-85.333333V384H128z m85.333333 170.666667v-85.333334h512v85.333334H213.333333z m0 170.666666v-85.333333h213.333334v85.333333H213.333333zM986.112 682.88c-18.901333-29.013333-58.752-36.010667-88.746667-18.688l-137.301333 79.274667-195.754667-108.672-73.941333 42.666666 145.92 137.472-109.013333 62.933334-94.421334-44.032-55.424 32 177.066667 116.906666a42.666667 42.666667 0 0 0 44.842667 1.28l69.546666-40.106666 295.594667-170.666667a64 64 0 0 0 21.632-90.368" /></svg>