<?xml version="1.0" standalone="no"?><!DOCTYPE svg PUBLIC "-//W3C//DTD SVG 1.1//EN" "http://www.w3.org/Graphics/SVG/1.1/DTD/svg11.dtd"><svg class="icon" width="200px" height="200.00px" viewBox="0 0 1024 1024" version="1.1" xmlns="http://www.w3.org/2000/svg"><path fill="#ffffff" d="M554.666667 681.941333v-175.317333l149.333333-64v175.36l-149.333333 64z m-234.666667-239.317333l149.333333 64v175.36l-149.333333-64v-175.36zM512 323.754667l126.336 54.186666L512 432.042667 385.621333 377.941333 512 323.754667z m275.626667 42.666666c-0.341333-1.28-0.938667-2.346667-1.408-3.541333a39.978667 39.978667 0 0 0-3.242667-6.954667c-0.725333-1.237333-1.621333-2.389333-2.474667-3.541333a41.685333 41.685333 0 0 0-8.234666-8.277333c-0.725333-0.554667-1.28-1.28-2.133334-1.792-1.322667-0.896-2.816-1.365333-4.224-2.133334-0.853333-0.426667-1.536-1.109333-2.432-1.493333l-234.666666-100.565333a42.624 42.624 0 0 0-33.621334 0l-234.666666 100.565333c-0.938667 0.426667-1.621333 1.109333-2.517334 1.536-1.408 0.725333-2.858667 1.194667-4.181333 2.090667-0.810667 0.512-1.365333 1.237333-2.133333 1.834666a38.613333 38.613333 0 0 0-8.192 8.234667c-0.853333 1.152-1.749333 2.304-2.517334 3.541333a39.978667 39.978667 0 0 0-3.242666 6.912c-0.426667 1.237333-1.024 2.346667-1.365334 3.584a42.368 42.368 0 0 0-1.706666 11.52v268.16a42.666667 42.666667 0 0 0 25.856 39.210667l234.666666 100.565333c0.981333 0.426667 2.048 0.597333 3.072 0.981334A47.018667 47.018667 0 0 0 512 789.333333a42.154667 42.154667 0 0 0 13.696-2.474666c1.024-0.384 2.133333-0.512 3.114667-0.981334l234.666666-100.565333a42.666667 42.666667 0 0 0 25.856-39.210667V377.898667a42.368 42.368 0 0 0-1.706666-11.52zM941.056 321.536C967.808 381.653333 981.333333 445.696 981.333333 512c0 258.816-210.517333 469.333333-469.333333 469.333333S42.666667 770.816 42.666667 512 253.184 42.666667 512 42.666667c55.722667 0 110.336 9.685333 162.218667 28.8l-29.525334 80.085333A382.165333 382.165333 0 0 0 512 128c-211.754667 0-384 172.245333-384 384 0 211.712 172.245333 384 384 384 211.712 0 384-172.288 384-384 0-54.229333-11.093333-106.666667-32.896-155.818667l77.952-34.645333zM810.666667 149.333333a42.709333 42.709333 0 0 0 0 85.333334 42.709333 42.709333 0 0 0 0-85.333334z m0 170.666667c-70.613333 0-128-57.386667-128-128 0-70.570667 57.386667-128 128-128 70.570667 0 128 57.429333 128 128 0 70.613333-57.429333 128-128 128z" /></svg>