<?xml version="1.0" standalone="no"?><!DOCTYPE svg PUBLIC "-//W3C//DTD SVG 1.1//EN" "http://www.w3.org/Graphics/SVG/1.1/DTD/svg11.dtd"><svg class="icon" width="200px" height="191.04px" viewBox="0 0 1072 1024" version="1.1" xmlns="http://www.w3.org/2000/svg"><path fill="#ffffff" d="M298.666667 213.333333h341.333333V170.666667H298.666667v42.666666zM128 298.666667v490.666666h170.666667v85.333334H85.333333a42.666667 42.666667 0 0 1-42.666666-42.666667V256a42.666667 42.666667 0 0 1 42.666666-42.666667h128V128a42.666667 42.666667 0 0 1 42.666667-42.666667h426.666667a42.666667 42.666667 0 0 1 42.666666 42.666667v85.333333h106.666667a42.666667 42.666667 0 0 1 42.666667 42.666667v341.333333h-85.333334V298.666667H128z m341.333333 123.989333l174.677334-77.653333 34.688 77.994666-192 85.333334a42.538667 42.538667 0 0 1-34.688 0l-192-85.333334 34.645333-77.994666L469.333333 422.656zM964.778667 661.546667c-18.901333-29.013333-58.752-36.010667-88.746667-18.688l-137.301333 79.274666-195.754667-108.672-73.898667 42.666667 145.92 137.472-109.056 62.933333-94.378666-44.032-55.466667 32 177.066667 116.906667a42.666667 42.666667 0 0 0 44.842666 1.28l69.546667-40.106667 295.594667-170.666666a64 64 0 0 0 21.632-90.368" /></svg>