<?xml version="1.0" standalone="no"?><!DOCTYPE svg PUBLIC "-//W3C//DTD SVG 1.1//EN" "http://www.w3.org/Graphics/SVG/1.1/DTD/svg11.dtd"><svg class="icon" width="200px" height="191.04px" viewBox="0 0 1072 1024" version="1.1" xmlns="http://www.w3.org/2000/svg"><path fill="#ffffff" d="M1007.402667 661.546667c-18.858667-29.098667-58.752-36.010667-88.746667-18.688l-137.301333 79.232-195.712-108.672-73.941334 42.666666 145.92 137.472-109.013333 62.933334-94.421333-44.032-55.424 32 177.066666 116.906666a42.666667 42.666667 0 0 0 44.842667 1.322667l69.546667-40.106667 295.552-170.666666a64 64 0 0 0 21.632-90.368M384 213.333333h256V170.666667H384v42.666666z m341.333333 0h170.666667a42.666667 42.666667 0 0 1 42.666667 42.666667v341.333333h-85.333334V298.666667H170.666667v469.333333h170.666666v85.333333H128a42.666667 42.666667 0 0 1-42.666667-42.666666V256a42.666667 42.666667 0 0 1 42.666667-42.666667h170.666667V128a42.666667 42.666667 0 0 1 42.666666-42.666667h341.333334a42.666667 42.666667 0 0 1 42.666666 42.666667v85.333333zM298.666667 469.333333V384h426.666666v85.333333H298.666667z" /></svg>