<?xml version="1.0" standalone="no"?><!DOCTYPE svg PUBLIC "-//W3C//DTD SVG 1.1//EN" "http://www.w3.org/Graphics/SVG/1.1/DTD/svg11.dtd"><svg class="icon" width="200px" height="200.00px" viewBox="0 0 1024 1024" version="1.1" xmlns="http://www.w3.org/2000/svg"><path fill="#ffffff" d="M853.333333 737.450667l-340.906666 154.197333L170.666667 728.917333V336.128l322.986666 153.813333c11.605333 5.546667 25.088 5.546667 36.693334 0L853.333333 336.128v401.322667z m-231.082666-385.749334L512 404.181333l-110.250667-52.48L512 302.634667l110.250667 48.981333zM512 132.522667l285.141333 135.808-77.013333 36.693333 1.237333-2.730667-192.042666-85.333333a42.624 42.624 0 0 0-34.645334 0l-192 85.333333 1.194667 2.688-77.013333-36.650666L512 132.565333z m426.666667 135.637333a42.666667 42.666667 0 0 0-24.32-38.528l-384-182.826667a42.453333 42.453333 0 0 0-36.693334 0l-384 182.826667a42.666667 42.666667 0 0 0-24.32 38.528v487.637333a42.666667 42.666667 0 0 0 24.32 38.485334l384 182.869333a42.368 42.368 0 0 0 35.925334 0.384l384-173.738667a42.666667 42.666667 0 0 0 25.088-38.869333V277.376h-0.981334c0.64-2.986667 0.981333-6.101333 0.981334-9.173333zM478.165333 798.165333a42.496 42.496 0 0 1-30.165333-12.501333l-106.666667-106.666667L401.664 618.666667l76.501333 76.501333L661.333333 512l60.330667 60.330667-213.333333 213.333333a42.496 42.496 0 0 1-30.165334 12.501333" /></svg>