<?xml version="1.0" standalone="no"?><!DOCTYPE svg PUBLIC "-//W3C//DTD SVG 1.1//EN" "http://www.w3.org/Graphics/SVG/1.1/DTD/svg11.dtd"><svg class="icon" width="200px" height="200.00px" viewBox="0 0 1024 1024" version="1.1" xmlns="http://www.w3.org/2000/svg"><path fill="#ffffff" d="M896 170.666667h85.333333v341.333333h-85.333333c0-211.754667-172.288-384-384-384a385.834667 385.834667 0 0 0-359.850667 249.6l-79.914666-29.866667C140.416 165.248 317.141333 42.666667 512 42.666667c158.549333 0 299.008 79.018667 384 199.722666V170.666667z m-384 725.333333a385.834667 385.834667 0 0 0 359.850667-249.6l79.914666 29.866667C883.584 858.752 706.858667 981.333333 512 981.333333a469.077333 469.077333 0 0 1-384-199.722666v71.68H42.666667V512h85.333333c0 211.712 172.245333 384 384 384zM469.333333 426.666667H298.666667v42.666666h170.666666v85.333334H298.666667v42.666666h170.666666v85.333334H213.333333V341.333333h256v85.333334z m213.333334 0h-42.666667v170.666666h42.666667a85.333333 85.333333 0 0 0 0-170.666666z m0 256h-128V341.333333h128a170.666667 170.666667 0 0 1 0 341.333334z" /></svg>