<?xml version="1.0" standalone="no"?><!DOCTYPE svg PUBLIC "-//W3C//DTD SVG 1.1//EN" "http://www.w3.org/Graphics/SVG/1.1/DTD/svg11.dtd"><svg class="icon" width="200px" height="191.04px" viewBox="0 0 1072 1024" version="1.1" xmlns="http://www.w3.org/2000/svg"><path fill="#ffffff" d="M213.333333 384V298.666667h384v85.333333H213.333333z m0 170.666667v-85.333334h213.333334v85.333334H213.333333zM128 170.666667v640h256v85.333333H85.333333a42.666667 42.666667 0 0 1-42.666666-42.666667V128a42.666667 42.666667 0 0 1 42.666666-42.666667h682.666667a42.666667 42.666667 0 0 1 42.666667 42.666667v256h-85.333334V170.666667H128zM853.333333 853.333333h-256v-256h256v256z m128-149.333333v-85.333333h-42.666666V554.666667a42.666667 42.666667 0 0 0-42.666667-42.666667h-64v-42.666667h-85.333333v42.666667h-42.666667v-42.666667h-85.333333v42.666667H554.666667a42.666667 42.666667 0 0 0-42.666667 42.666667v64h-42.666667v85.333333h42.666667v42.666667h-42.666667v85.333333h42.666667V896a42.666667 42.666667 0 0 0 42.666667 42.666667h64v42.666666h85.333333v-42.666666h42.666667v42.666666h85.333333v-42.666666H896a42.666667 42.666667 0 0 0 42.666667-42.666667v-64h42.666666v-85.333333h-42.666666v-42.666667h42.666666z" /></svg>