<?xml version="1.0" standalone="no"?><!DOCTYPE svg PUBLIC "-//W3C//DTD SVG 1.1//EN" "http://www.w3.org/Graphics/SVG/1.1/DTD/svg11.dtd"><svg class="icon" width="200px" height="181.88px" viewBox="0 0 1126 1024" version="1.1" xmlns="http://www.w3.org/2000/svg"><path fill="#ffffff" d="M469.333333 896H85.333333a42.666667 42.666667 0 0 1-42.666666-42.666667V128a42.666667 42.666667 0 0 1 42.666666-42.666667h682.666667a42.666667 42.666667 0 0 1 42.666667 42.666667v298.666667h-85.333334V170.666667H128v640h341.333333v85.333333zM213.333333 341.333333V256h426.666667v85.333333H213.333333z m0 170.666667v-85.333333h277.333334v85.333333H213.333333zM640 853.333333h256v-9.856a11.52 11.52 0 0 0-11.52-11.52c-52.48 0-95.146667-42.666667-95.146667-95.146666v-10.325334c0-23.552 9.301333-46.848 26.24-65.578666 7.850667-8.704 20.266667-27.306667 15.274667-54.528a64.085333 64.085333 0 0 0-48.682667-50.261334c-19.925333-4.096-39.253333 0.426667-54.528 12.8A63.872 63.872 0 0 0 704 618.666667c0 20.010667 8.96 34.133333 16.512 42.410666 16.853333 18.56 26.154667 41.813333 26.154667 65.408v10.368c0 52.48-42.666667 95.146667-95.146667 95.146667a11.52 11.52 0 0 0-11.52 11.52v9.813333z m298.666667 85.333334h-341.333334a42.666667 42.666667 0 0 1-42.666666-42.666667v-52.522667a96.938667 96.938667 0 0 1 96.853333-96.853333 9.813333 9.813333 0 0 0 9.813333-9.813333v-10.368c0-2.346667-1.450667-5.248-4.010666-8.064a148.821333 148.821333 0 0 1 16.469333-215.637334 150.058667 150.058667 0 0 1 125.696-30.165333 149.290667 149.290667 0 0 1 115.285333 118.4 148.352 148.352 0 0 1-35.84 127.104c-2.688 2.986667-4.266667 6.058667-4.266666 8.405333v10.325334c0 5.418667 4.437333 9.813333 9.813333 9.813333A96.938667 96.938667 0 0 1 981.333333 843.52v52.48a42.666667 42.666667 0 0 1-42.666666 42.666667z" /></svg>