<?xml version="1.0" standalone="no"?><!DOCTYPE svg PUBLIC "-//W3C//DTD SVG 1.1//EN" "http://www.w3.org/Graphics/SVG/1.1/DTD/svg11.dtd"><svg class="icon" width="200px" height="200.00px" viewBox="0 0 1024 1024" version="1.1" xmlns="http://www.w3.org/2000/svg"><path fill="#ffffff" d="M170.666667 170.666667v640h128v85.333333H128a42.666667 42.666667 0 0 1-42.666667-42.666667V128a42.666667 42.666667 0 0 1 42.666667-42.666667h682.666667a42.666667 42.666667 0 0 1 42.666666 42.666667v490.666667h-85.333333V170.666667H170.666667z m256 426.666666v-128H298.666667V384h110.336L321.834667 296.832l60.330666-60.330667 87.68 87.68 87.168-87.168L617.386667 297.386667 530.773333 384H640L640 469.333333h-128v128h-85.333333zM964.778667 682.88c-18.901333-29.013333-58.752-36.010667-88.746667-18.688l-137.301333 79.274667-195.754667-108.672-73.941333 42.666666 145.92 137.472-109.013334 62.933334-94.421333-44.032-55.424 32 177.066667 116.906666a42.666667 42.666667 0 0 0 44.842666 1.28l69.546667-40.106666 295.594667-170.666667a64 64 0 0 0 21.632-90.368" /></svg>