<?xml version="1.0" standalone="no"?><!DOCTYPE svg PUBLIC "-//W3C//DTD SVG 1.1//EN" "http://www.w3.org/Graphics/SVG/1.1/DTD/svg11.dtd"><svg class="icon" width="200px" height="200.00px" viewBox="0 0 1024 1024" version="1.1" xmlns="http://www.w3.org/2000/svg"><path fill="#ffffff" d="M263.978667 619.221333a320 320 0 0 1-50.048-171.264c0-176.426667 143.573333-320 320-320 176.469333 0 320 143.573333 320 320a318.08 318.08 0 0 1-174.933334 285.354667 455.424 455.424 0 0 0-314.666666-125.354667c-33.962667 0-67.584 3.925333-100.352 11.264m668.288 30.976a81.066667 81.066667 0 0 0-37.333334-17.109333 406.4 406.4 0 0 0 44.288-185.130667c0-223.488-181.76-405.290667-405.333333-405.290666-223.445333 0-405.290667 181.802667-405.290667 405.333333 0 69.802667 18.346667 138.026667 52.053334 198.272-18.048 7.850667-35.669333 16.810667-52.650667 27.008l43.946667 73.173333a373.546667 373.546667 0 0 1 192.426666-53.162666c76.586667 0 149.504 22.869333 211.2 65.237333-6.4 0.341333-12.8 0.853333-19.242666 0.853333-53.76 0-105.6-11.093333-154.154667-33.066666l-35.157333 77.738666a456.234667 456.234667 0 0 0 285.738666 30.208l0.384 1.194667c3.541333-1.066667 6.912-2.474667 10.410667-3.669333a449.962667 449.962667 0 0 0 197.546667-102.570667c8.533333-7.68 14.336-10.410667 17.365333-11.392a10.282667 10.282667 0 0 1-1.28 6.997333c-74.538667 125.269333-218.325333 203.093333-375.253333 203.093334-112.042667 0-219.221333-41.514667-301.866667-116.992L142.506667 873.984a531.968 531.968 0 0 0 359.424 139.306667c186.88 0 358.741333-93.866667 448.597333-244.864 23.509333-39.509333 15.701333-90.368-18.261333-118.229334M576.597333 576V469.333333h106.666667V384h-87.893333l86.613333-86.656-60.373333-60.330667-87.125334 87.125334-87.722666-87.637334-60.330667 60.288L473.6 384H384.597333v85.333333h106.666667v106.666667z" /></svg>