<?xml version="1.0" standalone="no"?><!DOCTYPE svg PUBLIC "-//W3C//DTD SVG 1.1//EN" "http://www.w3.org/Graphics/SVG/1.1/DTD/svg11.dtd"><svg class="icon" width="200px" height="200.00px" viewBox="0 0 1024 1024" version="1.1" xmlns="http://www.w3.org/2000/svg"><path fill="#ffffff" d="M853.333333 896H213.333333V205.653333l341.333334-68.266666V810.666667h85.333333V363.434667l213.333333 91.434666V896z m59.477334-508.501333L640 270.592V85.333333a42.666667 42.666667 0 0 0-51.072-41.856l-426.666667 85.333334A42.666667 42.666667 0 0 0 128 170.666667v768a42.666667 42.666667 0 0 0 42.666667 42.666666h725.333333a42.666667 42.666667 0 0 0 42.666667-42.666666V426.666667a42.666667 42.666667 0 0 0-25.856-39.168zM320 426.666667V298.666667h128v128h-128z m0 234.666666v-128h128v128h-128z" /></svg>