<?xml version="1.0" standalone="no"?><!DOCTYPE svg PUBLIC "-//W3C//DTD SVG 1.1//EN" "http://www.w3.org/Graphics/SVG/1.1/DTD/svg11.dtd"><svg class="icon" width="200px" height="182.69px" viewBox="0 0 1121 1024" version="1.1" xmlns="http://www.w3.org/2000/svg"><path fill="#ffffff" d="M256 426.666667c70.570667 0 128-57.429333 128-128 0-70.613333-57.429333-128-128-128-70.613333 0-128 57.386667-128 128 0 70.570667 57.386667 128 128 128z m0-341.333334c117.589333 0 213.333333 95.701333 213.333333 213.333334 0 117.589333-95.744 213.333333-213.333333 213.333333-117.632 0-213.333333-95.744-213.333333-213.333333 0-117.632 95.701333-213.333333 213.333333-213.333334z m511.957333 85.333334c-70.613333 0-128 57.386667-128 128 0 70.570667 57.386667 128 128 128 70.570667 0 128-57.429333 128-128 0-70.613333-57.429333-128-128-128z m0 341.333333c-117.632 0-213.333333-95.744-213.333333-213.333333 0-117.632 95.701333-213.333333 213.333333-213.333334 117.589333 0 213.333333 95.701333 213.333334 213.333334 0 117.589333-95.744 213.333333-213.333334 213.333333z m-512 383.914667c70.613333 0 128-57.386667 128-128 0-70.570667-57.386667-128-128-128-70.570667 0-128 57.429333-128 128 0 70.613333 57.429333 128 128 128zM256 554.666667c117.632 0 213.333333 95.701333 213.333333 213.333333 0 117.589333-95.701333 213.333333-213.333333 213.333333-117.589333 0-213.290667-95.744-213.290667-213.333333 0-117.632 95.701333-213.333333 213.333334-213.333333zM951.082667 631.125333L704 878.250667l-119.168-119.125334-60.330667 60.288 149.333334 149.333334a42.496 42.496 0 0 0 60.330666 0l277.290667-277.333334-60.330667-60.288z" /></svg>