<?xml version="1.0" standalone="no"?><!DOCTYPE svg PUBLIC "-//W3C//DTD SVG 1.1//EN" "http://www.w3.org/Graphics/SVG/1.1/DTD/svg11.dtd"><svg class="icon" width="200px" height="200.00px" viewBox="0 0 1024 1024" version="1.1" xmlns="http://www.w3.org/2000/svg"><path fill="#ffffff" d="M810.666667 896H234.666667c-35.285333 0-64-28.714667-64-64V369.578667c19.413333 9.216 41.088 14.421333 64 14.421333H810.666667v512zM234.666667 298.666667C199.381333 298.666667 170.666667 269.952 170.666667 234.666667S199.381333 170.666667 234.666667 170.666667H810.666667V85.333333H234.666667C152.32 85.333333 85.333333 152.32 85.333333 234.666667v597.333333C85.333333 914.346667 152.32 981.333333 234.666667 981.333333H853.333333a42.666667 42.666667 0 0 0 42.666667-42.666666V341.333333a42.666667 42.666667 0 0 0-42.666667-42.666666H234.666667zM660.736 719.274667L576 668.416l-84.736 50.858667A42.666667 42.666667 0 0 1 426.666667 682.666667V384h85.333333v223.317333l42.069333-25.216a42.666667 42.666667 0 0 1 43.861334 0l42.069333 25.216V384h85.333333v298.666667a42.666667 42.666667 0 0 1-64.597333 36.608z" /></svg>