<?xml version="1.0" standalone="no"?><!DOCTYPE svg PUBLIC "-//W3C//DTD SVG 1.1//EN" "http://www.w3.org/Graphics/SVG/1.1/DTD/svg11.dtd"><svg class="icon" width="200px" height="182.69px" viewBox="0 0 1121 1024" version="1.1" xmlns="http://www.w3.org/2000/svg"><path fill="#ffffff" d="M811.264 341.461333l85.333333-0.256-0.597333-213.333333A42.666667 42.666667 0 0 0 853.333333 85.333333h-0.128l-768 2.133334A42.666667 42.666667 0 0 0 42.666667 130.304l1.92 682.666667a42.666667 42.666667 0 0 0 42.666666 42.538666h0.128l341.333334-0.981333-0.256-85.333333-298.666667 0.853333-1.365333-490.666667 682.666666-1.92 0.170667 64zM555.605333 854.4h341.333334v-384h-341.333334v384z m384-469.333333a42.666667 42.666667 0 0 1 42.666667 42.666666v469.333334a42.666667 42.666667 0 0 1-42.666667 42.666666h-426.666666a42.666667 42.666667 0 0 1-42.666667-42.666666v-469.333334a42.666667 42.666667 0 0 1 42.666667-42.666666h426.666666z m-341.333333 256v-85.333334h256v85.333334h-256z m0 128v-85.333334h149.333333v85.333334h-149.333333z" /></svg>