<?xml version="1.0" standalone="no"?><!DOCTYPE svg PUBLIC "-//W3C//DTD SVG 1.1//EN" "http://www.w3.org/Graphics/SVG/1.1/DTD/svg11.dtd"><svg class="icon" width="200px" height="181.88px" viewBox="0 0 1126 1024" version="1.1" xmlns="http://www.w3.org/2000/svg"><path fill="#ffffff" d="M512 341.333333V256h170.666667v85.333333h-170.666667z m0 128V384h170.666667v85.333333h-170.666667zM170.666667 170.666667v640.085333h426.709333v85.333333h-469.333333a42.666667 42.666667 0 0 1-42.709334-42.666666V128a42.666667 42.666667 0 0 1 42.666667-42.666667h682.752a42.666667 42.666667 0 0 1 42.666667 42.666667L853.333333 426.666667h-85.333333l0.085333-256H170.666667z m114.688 143.616L330.666667 256l45.354666 58.282667 72.021334 23.210666-44.032 59.221334L403.2 469.333333l-72.533333-21.717333-72.533334 21.717333-0.768-72.618666L213.333333 337.493333l72.021334-23.210666zM991.786667 673.877333l-150.869334-150.826666a42.624 42.624 0 0 0-60.330666 0l-150.869334 150.826666 60.330667 60.373334 78.037333-78.08v282.581333h85.333334V656.213333l78.037333 78.037334 60.330667-60.373334z" /></svg>