<?xml version="1.0" standalone="no"?><!DOCTYPE svg PUBLIC "-//W3C//DTD SVG 1.1//EN" "http://www.w3.org/Graphics/SVG/1.1/DTD/svg11.dtd"><svg class="icon" width="200px" height="190.51px" viewBox="0 0 1075 1024" version="1.1" xmlns="http://www.w3.org/2000/svg"><path fill="#ffffff" d="M128 85.333333h682.709333a42.666667 42.666667 0 0 1 42.666667 42.666667v298.666667H768l0.042667-256h-597.333334v640.042666L512 810.666667v85.333333l-384 0.085333a42.666667 42.666667 0 0 1-42.666667-42.666666V128a42.666667 42.666667 0 0 1 42.666667-42.666667z m180.309333 332.544l97.834667 97.834667 204.501333-204.544 60.330667 60.373333-234.666667 234.666667a42.496 42.496 0 0 1-60.330666 0l-128-128 60.330666-60.330667zM610.048 804.778667a455.850667 455.850667 0 0 1 358.570667 0c7.68 3.2 12.757333 11.733333 12.757333 21.290666L981.333333 917.333333c0 12.501333-10.709333 21.333333-21.333333 21.333334h-341.333333a21.632 21.632 0 0 1-21.333334-21.333334v-91.306666c0-9.514667 5.077333-18.048 12.714667-21.248z m76.629333-177.749334l-3.2-28.074666a121.258667 121.258667 0 0 1 29.184-94.464A101.973333 101.973333 0 0 1 789.333333 469.333333a101.973333 101.973333 0 0 1 76.672 35.157334c22.528 25.216 33.152 59.648 29.226667 94.464l-3.2 28.074666c-6.357333 56.064-50.474667 98.346667-102.698667 98.346667-52.181333 0-96.341333-42.282667-102.656-98.346667z" /></svg>