<?xml version="1.0" standalone="no"?><!DOCTYPE svg PUBLIC "-//W3C//DTD SVG 1.1//EN" "http://www.w3.org/Graphics/SVG/1.1/DTD/svg11.dtd"><svg class="icon" width="200px" height="200.00px" viewBox="0 0 1024 1024" version="1.1" xmlns="http://www.w3.org/2000/svg"><path fill="#ffffff" d="M752.896 867.584A171.690667 171.690667 0 0 0 874.666667 704c0-94.122667-76.586667-170.666667-170.666667-170.666667-94.122667 0-170.666667 76.544-170.666667 170.666667a171.392 171.392 0 0 0 123.306667 164.010667c31.061333 8.96 65.194667 8.832 96.256-0.426667zM704 448c141.141333 0 256 114.816 256 256 0 112.384-75.093333 213.248-182.698667 245.333333a256.085333 256.085333 0 0 1-144.298666 0.682667A257.109333 257.109333 0 0 1 448 704c0-141.184 114.816-256 256-256z m-42.666667 384V768h85.333334v64h-85.333334z m0-106.666667v-128h85.333334v128h-85.333334zM145.664 256L256 145.664V256H145.664zM256 42.666667a42.666667 42.666667 0 0 0-30.165333 12.501333l-170.666667 170.666667A42.666667 42.666667 0 0 0 42.666667 256v640a42.666667 42.666667 0 0 0 42.666666 42.666667h298.666667v-85.333334H128V341.333333h170.666667a42.666667 42.666667 0 0 0 42.666666-42.666666V128h341.333334v256h85.333333V85.333333a42.666667 42.666667 0 0 0-42.666667-42.666666H256z" /></svg>