<?xml version="1.0" standalone="no"?><!DOCTYPE svg PUBLIC "-//W3C//DTD SVG 1.1//EN" "http://www.w3.org/Graphics/SVG/1.1/DTD/svg11.dtd"><svg class="icon" width="200px" height="200.00px" viewBox="0 0 1024 1024" version="1.1" xmlns="http://www.w3.org/2000/svg"><path fill="#ffffff" d="M853.333333 640H170.666667V170.666667h682.666666v469.333333z m42.666667-554.666667H128a42.666667 42.666667 0 0 0-42.666667 42.666667v554.666667a42.666667 42.666667 0 0 0 42.666667 42.666666h281.002667l-204.501334 204.501334 60.330667 60.330666L469.333333 785.664V917.333333h85.333334v-131.669333l204.501333 204.501333 60.330667-60.330666L614.997333 725.333333H896a42.666667 42.666667 0 0 0 42.666667-42.666666V128a42.666667 42.666667 0 0 0-42.666667-42.666667zM469.333333 395.477333l-88.490666 82.688-64.512-60.330666 159.744-149.333334a47.914667 47.914667 0 0 1 64.512 0l159.744 149.333334-64.512 60.330666L554.666667 402.304V597.333333h-85.333334V395.477333z" /></svg>