<?xml version="1.0" standalone="no"?><!DOCTYPE svg PUBLIC "-//W3C//DTD SVG 1.1//EN" "http://www.w3.org/Graphics/SVG/1.1/DTD/svg11.dtd"><svg class="icon" width="200px" height="200.00px" viewBox="0 0 1024 1024" version="1.1" xmlns="http://www.w3.org/2000/svg"><path fill="#ffffff" d="M170.666667 728.874667l341.333333 162.56 341.333333-162.56V295.125333l-341.333333-162.56-341.333333 162.56v433.749334zM512 981.333333a42.666667 42.666667 0 0 1-18.346667-4.138666l-384-182.869334a42.581333 42.581333 0 0 1-24.32-38.528V268.16c0-16.426667 9.429333-31.445333 24.32-38.485333l384-182.869334c11.605333-5.546667 25.088-5.546667 36.693334 0l384 182.869334c14.890667 7.04 24.32 22.058667 24.32 38.485333v487.68a42.581333 42.581333 0 0 1-24.32 38.485333l-384 182.869334A42.666667 42.666667 0 0 1 512 981.333333zM661.333333 426.666667c-47.061333 0-85.333333 38.272-85.333333 85.333333s38.272 85.333333 85.333333 85.333333h85.333334v85.333334h-85.333334c-94.122667 0-170.666667-76.586667-170.666666-170.666667 0-94.122667 76.544-170.666667 170.666666-170.666667h85.333334v85.333334h-85.333334z m-341.333333 256V341.333333h85.333333v341.333334h-85.333333z" /></svg>