<?xml version="1.0" standalone="no"?><!DOCTYPE svg PUBLIC "-//W3C//DTD SVG 1.1//EN" "http://www.w3.org/Graphics/SVG/1.1/DTD/svg11.dtd"><svg class="icon" width="200px" height="182.69px" viewBox="0 0 1121 1024" version="1.1" xmlns="http://www.w3.org/2000/svg"><path fill="#ffffff" d="M85.333333 85.333333h768a42.666667 42.666667 0 0 1 42.666667 42.666667v298.666667h-85.333333V170.666667H128v426.666666h298.666667v170.666667H85.333333a42.666667 42.666667 0 0 1-42.666666-42.666667V128a42.666667 42.666667 0 0 1 42.666666-42.666667z m128 810.666667v-85.333333h213.333334v85.333333H213.333333zM816.896 888.917333A171.733333 171.733333 0 0 0 938.666667 725.333333c0-94.122667-76.544-170.666667-170.666667-170.666666s-170.666667 76.544-170.666667 170.666666a171.392 171.392 0 0 0 123.306667 164.010667c31.061333 8.96 65.152 8.789333 96.256-0.426667zM768 469.333333c141.141333 0 256 114.816 256 256a257.578667 257.578667 0 0 1-182.698667 245.333334 256.298667 256.298667 0 0 1-144.298666 0.682666A257.109333 257.109333 0 0 1 512 725.333333c0-141.184 114.816-256 256-256z m-42.666667 384v-64h85.333334V853.333333h-85.333334z m0-106.666666v-128h85.333334v128h-85.333334z" /></svg>