<?xml version="1.0" standalone="no"?><!DOCTYPE svg PUBLIC "-//W3C//DTD SVG 1.1//EN" "http://www.w3.org/Graphics/SVG/1.1/DTD/svg11.dtd"><svg class="icon" width="200px" height="200.00px" viewBox="0 0 1024 1024" version="1.1" xmlns="http://www.w3.org/2000/svg"><path fill="#ffffff" d="M128 42.666667h682.666667a42.666667 42.666667 0 0 1 42.666666 42.666666v298.666667h-85.333333V128H170.666667v640h213.333333v85.333333H128a42.666667 42.666667 0 0 1-42.666667-42.666666V85.333333a42.666667 42.666667 0 0 1 42.666667-42.666666z m128 256V213.333333h426.666667v85.333334H256z m0 170.666666V384h170.666667v85.333333H256zM554.666667 725.333333h341.333333v-170.666666h-341.333333v170.666666z m-42.666667-256h426.666667a42.666667 42.666667 0 0 1 42.666666 42.666667v298.666667a42.666667 42.666667 0 0 1-42.666666 42.666666H512a42.666667 42.666667 0 0 1-42.666667-42.666666v-298.666667a42.666667 42.666667 0 0 1 42.666667-42.666667z m85.333333 512v-85.333333h277.333334v85.333333H597.333333z" /></svg>