<?xml version="1.0" standalone="no"?><!DOCTYPE svg PUBLIC "-//W3C//DTD SVG 1.1//EN" "http://www.w3.org/Graphics/SVG/1.1/DTD/svg11.dtd"><svg class="icon" width="200px" height="200.00px" viewBox="0 0 1024 1024" version="1.1" xmlns="http://www.w3.org/2000/svg"><path fill="#ffffff" d="M213.333333 896V398.037333a653.653333 653.653333 0 0 0 164.949334 57.728l17.152-83.584A569.514667 569.514667 0 0 1 213.333333 300.501333V170.666667h597.333334v129.834666a569.472 569.472 0 0 1-184.490667 72.192l16.768 83.669334A654.72 654.72 0 0 0 810.666667 398.037333V896H213.333333zM853.333333 85.333333H170.666667a42.666667 42.666667 0 0 0-42.666667 42.666667v810.666667a42.666667 42.666667 0 0 0 42.666667 42.666666h682.666666a42.666667 42.666667 0 0 0 42.666667-42.666666V128a42.666667 42.666667 0 0 0-42.666667-42.666667zM426.666667 426.666667c0-47.061333 38.272-85.333333 85.333333-85.333334s85.333333 38.272 85.333333 85.333334-38.272 85.333333-85.333333 85.333333-85.333333-38.272-85.333333-85.333333z m307.498666 161.834666l-75.306666-75.306666A169.557333 169.557333 0 0 0 682.666667 426.666667c0-94.08-76.544-170.666667-170.666667-170.666667s-170.666667 76.586667-170.666667 170.666667c0 31.872 8.96 61.610667 24.234667 87.168l-75.178667 75.221333 60.288 60.330667 75.477334-75.477334a169.173333 169.173333 0 0 0 172.373333-0.384l75.306667 75.306667 60.330666-60.330667z" /></svg>