<?xml version="1.0" standalone="no"?><!DOCTYPE svg PUBLIC "-//W3C//DTD SVG 1.1//EN" "http://www.w3.org/Graphics/SVG/1.1/DTD/svg11.dtd"><svg class="icon" width="200px" height="200.00px" viewBox="0 0 1024 1024" version="1.1" xmlns="http://www.w3.org/2000/svg"><path fill="#ffffff" d="M213.333333 896V398.037333a653.653333 653.653333 0 0 0 164.949334 57.728l17.152-83.584A569.941333 569.941333 0 0 1 213.333333 300.501333V170.666667h597.333334v129.834666a569.472 569.472 0 0 1-184.490667 72.192l16.768 83.669334A654.72 654.72 0 0 0 810.666667 398.037333V896H213.333333zM853.333333 85.333333H170.666667a42.666667 42.666667 0 0 0-42.666667 42.666667v810.666667a42.666667 42.666667 0 0 0 42.666667 42.666666h682.666666a42.666667 42.666667 0 0 0 42.666667-42.666666V128a42.666667 42.666667 0 0 0-42.666667-42.666667zM598.613333 573.653333A169.642667 169.642667 0 0 1 512 597.333333a169.6 169.6 0 0 1-85.973333-23.296L350.72 649.386667l-60.330667-60.330667 75.050667-75.093333C350.122667 488.490667 341.333333 458.581333 341.333333 426.666667c0-94.08 76.544-170.666667 170.666667-170.666667s170.666667 76.586667 170.666667 170.666667c0 31.573333-8.618667 61.226667-23.68 86.656l75.178666 75.178666-60.330666 60.330667-75.178667-75.178667zM512 341.333333c-47.061333 0-85.333333 38.272-85.333333 85.333334s38.272 85.333333 85.333333 85.333333 85.333333-38.272 85.333333-85.333333-38.272-85.333333-85.333333-85.333334zM384 810.666667v-85.333334h256v85.333334H384z" /></svg>