<?xml version="1.0" standalone="no"?><!DOCTYPE svg PUBLIC "-//W3C//DTD SVG 1.1//EN" "http://www.w3.org/Graphics/SVG/1.1/DTD/svg11.dtd"><svg class="icon" width="200px" height="190.51px" viewBox="0 0 1075 1024" version="1.1" xmlns="http://www.w3.org/2000/svg"><path fill="#ffffff" d="M469.333333 341.333333V256h213.333334v85.333333h-213.333334z m0 128V384h128v85.333333h-128zM170.666667 170.666667v640h341.333333v85.333333H128a42.666667 42.666667 0 0 1-42.666667-42.666667V128a42.666667 42.666667 0 0 1 42.666667-42.666667h682.666667a42.666667 42.666667 0 0 1 42.666666 42.666667v298.666667h-85.333333V170.666667H170.666667z m114.688 128.128L330.666667 234.666667l45.354666 64.128L448 324.266667 404.010667 389.418667 403.157333 469.333333l-72.490666-23.893333-72.533334 23.893333-0.768-79.914666L213.333333 324.266667l72.021334-25.472zM896 853.333333h-42.666667v-172.501333l42.666667 20.266667V853.333333z m-213.333333-267.093333l85.333333-20.266667V853.333333h-85.333333v-267.093333z m170.666666 0.085333V512a42.666667 42.666667 0 0 0-52.522666-41.514667l-170.666667 40.533334c-19.2 4.565333-32.810667 21.76-32.810667 41.514666V896a42.666667 42.666667 0 0 0 42.666667 42.666667h298.666667a42.666667 42.666667 0 0 0 42.666666-42.666667v-221.866667a42.666667 42.666667 0 0 0-24.362666-38.570666L853.333333 586.325333z" /></svg>