<?xml version="1.0" standalone="no"?><!DOCTYPE svg PUBLIC "-//W3C//DTD SVG 1.1//EN" "http://www.w3.org/Graphics/SVG/1.1/DTD/svg11.dtd"><svg class="icon" width="200px" height="181.88px" viewBox="0 0 1126 1024" version="1.1" xmlns="http://www.w3.org/2000/svg"><path fill="#ffffff" d="M170.666667 170.666667v640h170.666666v85.333333H128a42.666667 42.666667 0 0 1-42.666667-42.666667V128a42.666667 42.666667 0 0 1 42.666667-42.666667h682.666667a42.666667 42.666667 0 0 1 42.666666 42.666667v405.333333h-85.333333V170.666667H170.666667z m170.666666 320a21.333333 21.333333 0 0 0 21.333334 21.333333H426.666667v85.333333H362.666667a106.666667 106.666667 0 1 1 0-213.333333h213.333333a21.333333 21.333333 0 1 0 0-42.666667H367.402667c-11.733333 13.013333-28.501333 21.333333-47.402667 21.333334a64 64 0 0 1 0-128c18.901333 0 35.669333 8.362667 47.402667 21.333333h208.64a106.666667 106.666667 0 1 1 0 213.333333H362.666667a21.333333 21.333333 0 0 0-21.333334 21.333334zM512 853.333333h85.333333v-170.666666h-85.333333v170.666666z m128-256a42.666667 42.666667 0 0 1 42.666667 42.666667v256a42.666667 42.666667 0 0 1-42.666667 42.666667h-170.666667a42.666667 42.666667 0 0 1-42.666666-42.666667v-256a42.666667 42.666667 0 0 1 42.666666-42.666667h170.666667z m207.402667 192h54.528L881.92 682.666667h-14.506667l-20.010666 106.666666z m82.517333 149.333334l-11.989333-64h-86.528l-11.946667 64H732.586667l57.472-306.517334A42.666667 42.666667 0 0 1 832 597.333333h85.333333a42.666667 42.666667 0 0 1 41.941334 34.816L1016.746667 938.666667h-86.826667z" /></svg>