<?xml version="1.0" standalone="no"?><!DOCTYPE svg PUBLIC "-//W3C//DTD SVG 1.1//EN" "http://www.w3.org/Graphics/SVG/1.1/DTD/svg11.dtd"><svg class="icon" width="200px" height="200.00px" viewBox="0 0 1024 1024" version="1.1" xmlns="http://www.w3.org/2000/svg"><path fill="#ffffff" d="M843.776 618.325333c21.546667 84.309333 10.666667 153.472-30.634667 194.816-41.301333 41.258667-110.506667 52.181333-194.773333 30.634667-1.706667-0.426667-3.498667-1.109333-5.248-1.578667a815.232 815.232 0 0 0 125.781333-103.296 811.52 811.52 0 0 0 103.253334-126.037333c0.469333 1.792 1.152 3.669333 1.621333 5.461333M406.912 843.776c-84.266667 21.504-153.472 10.666667-194.773333-30.634667-41.258667-41.344-52.181333-110.506667-30.634667-194.816 0.469333-1.792 1.152-3.669333 1.664-5.461333a811.52 811.52 0 0 0 103.210667 126.037333 816.128 816.128 0 0 0 125.781333 103.296c-1.706667 0.469333-3.498667 1.152-5.248 1.578667M181.504 406.954667c-21.546667-84.309333-10.666667-153.472 30.634667-194.816 27.434667-27.434667 67.2-41.429333 115.498666-41.429334a322.986667 322.986667 0 0 1 79.274667 10.794667c1.834667 0.426667 3.669333 1.152 5.461333 1.664a813.013333 813.013333 0 0 0-125.994666 103.210667 812.672 812.672 0 0 0-103.253334 126.037333c-0.469333-1.792-1.152-3.669333-1.621333-5.461333m620.928 105.685333c-30.208 57.642667-72.32 114.346667-123.861333 165.930667-51.541333 51.498667-108.245333 93.653333-165.930667 123.818666-57.685333-30.165333-114.389333-72.32-165.973333-123.818666-51.498667-51.541333-93.610667-108.288-123.776-165.930667 30.165333-57.642667 72.277333-114.346667 123.818666-165.930667 51.541333-51.498667 108.245333-93.653333 165.973334-123.818666 57.6 30.165333 114.346667 72.32 165.888 123.818666 51.541333 51.541333 93.653333 108.288 123.861333 165.930667m-184.064-331.136A322.858667 322.858667 0 0 1 697.6 170.666667c48.298667 0 88.064 13.994667 115.498667 41.429333 41.258667 41.344 52.181333 110.506667 30.634666 194.816-0.426667 1.792-1.152 3.669333-1.664 5.461333a812.672 812.672 0 0 0-103.210666-126.037333 813.013333 813.013333 0 0 0-125.994667-103.253333c1.792-0.469333 3.626667-1.152 5.461333-1.621334m255.104-29.696c-82.218667-82.218667-219.434667-85.888-360.832-23.637333-141.397333-62.293333-278.613333-58.581333-360.832 23.637333-82.176 82.176-85.888 219.392-23.594666 360.832-62.293333 141.44-58.581333 278.613333 23.594666 360.832 45.141333 45.098667 106.794667 66.730667 176.682667 66.730667 57.429333 0 120.32-14.762667 184.149333-42.837333 63.786667 28.074667 126.72 42.837333 184.149334 42.837333 69.845333 0 131.541333-21.632 176.682666-66.730667 82.176-82.218667 85.888-219.392 23.594667-360.832 62.293333-141.44 58.581333-278.613333-23.594667-360.832M467.072 547.925333L388.906667 469.76l-60.330667 60.330667 108.373333 108.330666a42.666667 42.666667 0 0 0 60.288 0l198.613334-198.570666-60.330667-60.373334-168.448 168.448z" /></svg>