<?xml version="1.0" standalone="no"?><!DOCTYPE svg PUBLIC "-//W3C//DTD SVG 1.1//EN" "http://www.w3.org/Graphics/SVG/1.1/DTD/svg11.dtd"><svg class="icon" width="200px" height="200.00px" viewBox="0 0 1024 1024" version="1.1" xmlns="http://www.w3.org/2000/svg"><path fill="#ffffff" d="M469.333333 132.608l285.141334 135.765333L469.333333 404.181333 184.192 268.373333 469.333333 132.608z m0 758.826667l-341.333333-162.56V336.213333l322.986667 153.770667c11.605333 5.546667 25.088 5.546667 36.693333 0L810.666667 336.128V554.666667h85.333333V277.333333h-1.28a42.24 42.24 0 0 0 1.28-9.130666 42.624 42.624 0 0 0-24.32-38.528l-384-182.869334a42.581333 42.581333 0 0 0-36.693333 0l-384 182.869334a42.624 42.624 0 0 0-24.32 38.528v487.637333a42.666667 42.666667 0 0 0 24.32 38.528l384 182.826667a42.325333 42.325333 0 0 0 36.693333 0l128-60.970667-36.693333-77.013333L469.333333 891.434667zM981.333333 766.165333h-109.226666l107.946666-107.946666-60.330666-60.330667-108.501334 108.458667L702.165333 597.333333l-60.330666 60.330667 108.501333 108.501333H640v85.333334h128v128h85.333333v-128h128z" /></svg>