<?xml version="1.0" standalone="no"?><!DOCTYPE svg PUBLIC "-//W3C//DTD SVG 1.1//EN" "http://www.w3.org/Graphics/SVG/1.1/DTD/svg11.dtd"><svg class="icon" width="200px" height="190.51px" viewBox="0 0 1075 1024" version="1.1" xmlns="http://www.w3.org/2000/svg"><path fill="#ffffff" d="M256 384V298.666667h384v85.333333H256z m0 170.666667v-85.333334h213.333333v85.333334H256zM170.666667 170.666667v640h85.333333v85.333333H128a42.666667 42.666667 0 0 1-42.666667-42.666667V128a42.666667 42.666667 0 0 1 42.666667-42.666667h682.666667a42.666667 42.666667 0 0 1 42.666666 42.666667v512h-85.333333V170.666667H170.666667zM533.333333 768v-85.333333h213.333334v85.333333H682.666667v170.666667h-85.333334v-170.666667h-64z m320 85.333333h42.666667v-85.333333h-42.666667v85.333333z m85.333334-170.666666a42.666667 42.666667 0 0 1 42.666666 42.666666v170.666667a42.666667 42.666667 0 0 1-42.666666 42.666667h-128a42.666667 42.666667 0 0 1-42.666667-42.666667v-170.666667a42.666667 42.666667 0 0 1 42.666667-42.666666h128z m-512 90.794666V682.666667h85.333333v256H422.912L384 847.872V938.666667H298.666667v-256h89.088L426.666667 773.461333z" /></svg>