<?xml version="1.0" standalone="no"?><!DOCTYPE svg PUBLIC "-//W3C//DTD SVG 1.1//EN" "http://www.w3.org/Graphics/SVG/1.1/DTD/svg11.dtd"><svg class="icon" width="200px" height="200.00px" viewBox="0 0 1024 1024" version="1.1" xmlns="http://www.w3.org/2000/svg"><path fill="#ffffff" d="M256 639.018667l-0.085333-57.173334c-0.085333-19.413333 12.928-36.778667 30.976-41.344 41.429333-10.368 84.053333-18.005333 126.634666-22.656 43.946667-4.864 77.141333-42.112 77.141334-87.594666 0-25.002667-11.008-49.024-30.293334-65.834667a84.906667 84.906667 0 0 1-28.245333-54.058667l-4.778667-39.296a91.434667 91.434667 0 0 1 22.058667-71.808 82.773333 82.773333 0 0 1 125.184 0c17.194667 19.413333 25.258667 45.610667 22.058667 71.765334l-4.778667 39.381333c-2.56 21.162667-12.629333 40.362667-28.330667 54.016-19.2 16.810667-30.208 40.832-30.208 65.834667 0 44.970667 33.536 82.218667 77.952 86.698666 42.154667 4.266667 84.266667 11.392 125.098667 21.205334 18.090667 4.352 31.317333 21.589333 31.402667 41.216l0.085333 57.429333 85.333333-0.853333-0.085333-57.301334a126.890667 126.890667 0 0 0-96.768-123.434666 1033.642667 1033.642667 0 0 0-136.533333-23.168l-0.128-3.328a170.154667 170.154667 0 0 0 56.874666-107.989334l4.778667-39.381333a176.981333 176.981333 0 0 0-42.88-138.666667A169.386667 169.386667 0 0 0 512 85.333333c-48.085333 0-94.165333 20.906667-126.464 57.344a176.981333 176.981333 0 0 0-42.88 138.666667l4.778667 39.338667c5.12 42.112 25.301333 80.469333 57.898666 109.610666l-1.109333 2.688c-46.464 5.12-92.928 13.44-138.154667 24.789334-56.533333 14.208-95.786667 65.450667-95.488 124.757333L170.666667 640l85.333333-0.981333zM981.333333 682.666667H42.666667v85.333333h128v213.333333h85.333333v-213.333333h42.666667v128h85.333333v-128h256v128h85.333333v-128h42.666667v213.333333h85.333333v-213.333333h128z" /></svg>