<?xml version="1.0" standalone="no"?><!DOCTYPE svg PUBLIC "-//W3C//DTD SVG 1.1//EN" "http://www.w3.org/Graphics/SVG/1.1/DTD/svg11.dtd"><svg class="icon" width="200px" height="174.00px" viewBox="0 0 1177 1024" version="1.1" xmlns="http://www.w3.org/2000/svg"><path fill="#ffffff" d="M469.376 763.733333c-63.018667-24.746667-172.842667-54.698667-341.333333-59.136v-533.333333c196.010667 5.418667 302.165333 47.36 341.333333 66.858667V763.733333z m85.461333-0.170666V238.165333c39.381333-19.626667 145.536-61.482667 341.333334-66.901333v278.186667h85.333333V128a42.666667 42.666667 0 0 0-42.666667-42.666667c-244.053333 0-375.978667 52.565333-426.752 78.848C461.312 137.898667 329.472 85.333333 85.333333 85.333333a42.666667 42.666667 0 0 0-42.666666 42.666667v618.752a42.666667 42.666667 0 0 0 42.666666 42.666667c285.098667 0 399.701333 75.904 402.090667 77.482666 1.109333 0.810667 2.432 1.152 3.626667 1.792 0.512 0.341333 0.938667 0.768 1.450666 1.066667 0.853333 0.426667 1.749333 0.597333 2.602667 0.981333 2.133333 0.896 4.138667 1.834667 6.357333 2.389334 1.706667 0.426667 3.456 0.554667 5.248 0.810666 1.792 0.213333 3.541333 0.810667 5.333334 0.810667 4.096 0 8.106667-0.810667 12.074666-1.962667 0.853333-0.256 1.664-0.597333 2.474667-0.896 1.621333-0.597333 3.328-1.024 4.906667-1.834666 0.981333-0.512 1.706667-1.28 2.688-1.877334 0.853333-0.512 1.792-0.682667 2.56-1.28 0.298667-0.170667 29.312-19.968 94.165333-39.253333l-24.362667-81.834667c-19.882667 5.973333-37.12 11.989333-51.712 17.749334zM991.701333 679.04l-150.869333-150.869333a42.624 42.624 0 0 0-60.330667 0l-150.912 150.869333 60.373334 60.330667L768 661.333333V938.666667h85.333333v-277.333334l78.037334 78.037334 60.330666-60.330667z" /></svg>