<?xml version="1.0" standalone="no"?><!DOCTYPE svg PUBLIC "-//W3C//DTD SVG 1.1//EN" "http://www.w3.org/Graphics/SVG/1.1/DTD/svg11.dtd"><svg class="icon" width="200px" height="182.69px" viewBox="0 0 1121 1024" version="1.1" xmlns="http://www.w3.org/2000/svg"><path fill="#ffffff" d="M128 170.666667v640.042666L469.333333 810.666667v85.333333l-384 0.085333a42.666667 42.666667 0 0 1-42.666666-42.666666V128a42.666667 42.666667 0 0 1 42.666666-42.666667h682.709334a42.666667 42.666667 0 0 1 42.666666 42.666667v298.666667H725.333333l0.042667-256h-597.333333z m137.642667 247.210666l97.834666 97.834667 204.501334-204.544 60.330666 60.373333-234.666666 234.666667a42.496 42.496 0 0 1-60.330667 0l-128-128 60.330667-60.330667zM896.853333 806.954667V643.84l-149.333333-82.986667-149.333333 82.986667v163.114667l149.333333 82.986666 149.333333-82.986666z m63.402667-225.536a42.666667 42.666667 0 0 1 21.930667 37.290666v213.333334a42.666667 42.666667 0 0 1-21.930667 37.333333l-192 106.666667a42.666667 42.666667 0 0 1-41.514667 0l-192-106.666667a42.666667 42.666667 0 0 1-21.930666-37.290667v-213.333333a42.666667 42.666667 0 0 1 21.930666-37.333333l192-106.666667a42.666667 42.666667 0 0 1 41.514667 0l192 106.666667z m-191.402667 143.957333a21.333333 21.333333 0 1 0-42.666666 0 21.333333 21.333333 0 0 0 42.666666 0z m-128 0c0-58.794667 47.786667-106.666667 106.666667-106.666667 58.794667 0 106.666667 47.872 106.666667 106.666667 0 58.837333-47.872 106.666667-106.666667 106.666667a106.794667 106.794667 0 0 1-106.666667-106.666667z" /></svg>