<?xml version="1.0" standalone="no"?><!DOCTYPE svg PUBLIC "-//W3C//DTD SVG 1.1//EN" "http://www.w3.org/Graphics/SVG/1.1/DTD/svg11.dtd"><svg class="icon" width="200px" height="200.00px" viewBox="0 0 1024 1024" version="1.1" xmlns="http://www.w3.org/2000/svg"><path fill="#ffffff" d="M128 85.333333h682.666667a42.666667 42.666667 0 0 1 42.666666 42.666667v341.333333h-85.333333V170.666667H170.666667v640h298.666666v85.333333H128a42.666667 42.666667 0 0 1-42.666667-42.666667V128a42.666667 42.666667 0 0 1 42.666667-42.666667z m128 256V256h426.666667v85.333333H256z m0 170.666667v-85.333333h298.666667v85.333333H256zM746.666667 917.333333c82.346667 0 149.333333-66.986667 149.333333-149.333333s-66.986667-149.333333-149.333333-149.333333S597.333333 685.653333 597.333333 768s66.986667 149.333333 149.333334 149.333333z m0-384c129.365333 0 234.666667 105.258667 234.666666 234.666667 0 129.365333-105.301333 234.666667-234.666666 234.666667A234.922667 234.922667 0 0 1 512 768c0-129.408 105.258667-234.666667 234.666667-234.666667z m98.517333 199.04a9.514667 9.514667 0 0 1 5.248 16.213334l-36.053333 35.114666a23.808 23.808 0 0 0-6.826667 21.034667l8.533333 49.621333a9.514667 9.514667 0 0 1-13.824 10.026667l-44.544-23.466667a23.850667 23.850667 0 0 0-22.144 0l-44.544 23.466667a9.472 9.472 0 0 1-13.781333-10.026667l8.533333-49.621333a23.722667 23.722667 0 0 0-6.826666-21.034667l-36.096-35.114666a9.514667 9.514667 0 0 1 5.290666-16.213334l49.792-7.253333a23.808 23.808 0 0 0 17.92-13.013333l22.272-45.141334a9.514667 9.514667 0 0 1 17.066667 0l22.229333 45.141334a23.808 23.808 0 0 0 17.92 13.013333l49.834667 7.253333z" /></svg>