<?xml version="1.0" standalone="no"?><!DOCTYPE svg PUBLIC "-//W3C//DTD SVG 1.1//EN" "http://www.w3.org/Graphics/SVG/1.1/DTD/svg11.dtd"><svg class="icon" width="200px" height="200.00px" viewBox="0 0 1024 1024" version="1.1" xmlns="http://www.w3.org/2000/svg"><path fill="#ffffff" d="M213.333333 896h597.333334V128H213.333333v768z m-42.666666 85.333333a42.666667 42.666667 0 0 1-42.666667-42.666666V85.333333a42.666667 42.666667 0 0 1 42.666667-42.666666h682.666666a42.666667 42.666667 0 0 1 42.666667 42.666666v853.333334a42.666667 42.666667 0 0 1-42.666667 42.666666H170.666667zM520.832 341.333333c-35.285333 0-64 28.714667-64 64s28.714667 64 64 64 64-28.714667 64-64-28.714667-64-64-64z m-119.168 264.832L341.333333 545.834667l56.32-56.32A148.266667 148.266667 0 0 1 371.498667 405.333333c0-82.346667 66.986667-149.333333 149.333333-149.333333s149.333333 66.986667 149.333333 149.333333c0 31.232-9.685333 60.202667-26.154666 84.181334l56.32 56.32L640 606.165333l-62.677333-62.677333a148.693333 148.693333 0 0 1-112.981334 0l-62.677333 62.677333zM341.333333 768v-85.333333h341.333334v85.333333H341.333333z" /></svg>