<?xml version="1.0" standalone="no"?><!DOCTYPE svg PUBLIC "-//W3C//DTD SVG 1.1//EN" "http://www.w3.org/Graphics/SVG/1.1/DTD/svg11.dtd"><svg class="icon" width="200px" height="200.00px" viewBox="0 0 1024 1024" version="1.1" xmlns="http://www.w3.org/2000/svg"><path fill="#ffffff" d="M576 638.165333V512H682.666667v-85.333333h-87.893334l86.613334-86.613334-60.330667-60.330666-87.168 87.125333-87.722667-87.68-60.330666 60.330667L473.002667 426.666667H384v85.333333h106.666667v126.165333zM853.333333 813.952l-60.842666-42.666667a42.666667 42.666667 0 0 0-51.968 2.261334l-82.176 69.205333-101.333334-67.584a42.666667 42.666667 0 0 0-47.36 0l-101.418666 67.626667-82.133334-68.949334a42.666667 42.666667 0 0 0-52.010666-2.133333L213.333333 814.506667V170.666667h640v643.285333zM896 85.333333H170.666667a42.666667 42.666667 0 0 0-42.666667 42.666667v768c0 23.552 20.181333 42.666667 43.733333 42.666667a42.666667 42.666667 0 0 0 24.576-7.808l100.096-70.485334 81.493334 68.309334a42.666667 42.666667 0 0 0 51.114666 2.816l104.32-69.546667 104.32 69.546667a42.666667 42.666667 0 0 0 51.157334-2.858667l81.578666-68.693333 101.12 70.954666A42.666667 42.666667 0 0 0 938.666667 896V128a42.666667 42.666667 0 0 0-42.666667-42.666667z" /></svg>