<?xml version="1.0" standalone="no"?><!DOCTYPE svg PUBLIC "-//W3C//DTD SVG 1.1//EN" "http://www.w3.org/Graphics/SVG/1.1/DTD/svg11.dtd"><svg class="icon" width="200px" height="181.88px" viewBox="0 0 1126 1024" version="1.1" xmlns="http://www.w3.org/2000/svg"><path fill="#ffffff" d="M85.333333 85.333333h682.666667a42.666667 42.666667 0 0 1 42.666667 42.666667v341.333333h-85.333334V170.666667H128v640h384v85.333333H85.333333a42.666667 42.666667 0 0 1-42.666666-42.666667V128a42.666667 42.666667 0 0 1 42.666666-42.666667z m490.666667 149.333334A64 64 0 0 1 640 298.666667c0 18.858667-8.32 35.669333-21.333333 47.402666v27.264c0 100.010667-86.101333 181.333333-192 181.333334-105.856 0-192-81.322667-192-181.333334v-27.264A63.701333 63.701333 0 0 1 213.333333 298.666667a64 64 0 0 1 128 0c0 18.858667-8.362667 35.669333-21.333333 47.402666v27.264C320 426.24 367.829333 469.333333 426.666667 469.333333s106.666667-43.093333 106.666666-96v-27.264A63.701333 63.701333 0 0 1 512 298.666667a64 64 0 0 1 64-64zM725.333333 554.666667a42.666667 42.666667 0 0 1 42.666667 42.666666v85.333334a42.666667 42.666667 0 0 1-42.666667 42.666666h-85.333333a42.666667 42.666667 0 0 1-42.666667-42.666666v-85.333334a42.666667 42.666667 0 0 1 42.666667-42.666666h85.333333z m213.333334 0a42.666667 42.666667 0 0 1 42.666666 42.666666v85.333334a42.666667 42.666667 0 0 1-42.666666 42.666666h-85.333334a42.666667 42.666667 0 0 1-42.666666-42.666666v-85.333334a42.666667 42.666667 0 0 1 42.666666-42.666666h85.333334z m0 213.333333a42.666667 42.666667 0 0 1 42.666666 42.666667v85.333333a42.666667 42.666667 0 0 1-42.666666 42.666667h-85.333334a42.666667 42.666667 0 0 1-42.666666-42.666667v-85.333333a42.666667 42.666667 0 0 1 42.666666-42.666667h85.333334z m-213.333334 0a42.666667 42.666667 0 0 1 42.666667 42.666667v85.333333a42.666667 42.666667 0 0 1-42.666667 42.666667h-85.333333a42.666667 42.666667 0 0 1-42.666667-42.666667v-85.333333a42.666667 42.666667 0 0 1 42.666667-42.666667h85.333333z" /></svg>