<?xml version="1.0" standalone="no"?><!DOCTYPE svg PUBLIC "-//W3C//DTD SVG 1.1//EN" "http://www.w3.org/Graphics/SVG/1.1/DTD/svg11.dtd"><svg class="icon" width="200px" height="190.51px" viewBox="0 0 1075 1024" version="1.1" xmlns="http://www.w3.org/2000/svg"><path fill="#ffffff" d="M256 384V298.666667h384v85.333333H256z m0 170.666667v-85.333334h213.333333v85.333334H256zM170.666667 170.666667v640h426.666666v85.333333H128a42.666667 42.666667 0 0 1-42.666667-42.666667V128a42.666667 42.666667 0 0 1 42.666667-42.666667h682.666667a42.666667 42.666667 0 0 1 42.666666 42.666667v384h-85.333333V170.666667H170.666667zM981.333333 723.498667h-109.226666l107.946666-107.946667-60.330666-60.330667-108.501334 108.458667L702.165333 554.666667l-60.330666 60.330666 108.501333 108.501334H640v85.333333h128v128h85.333333v-128h128z" /></svg>