<?xml version="1.0" standalone="no"?><!DOCTYPE svg PUBLIC "-//W3C//DTD SVG 1.1//EN" "http://www.w3.org/Graphics/SVG/1.1/DTD/svg11.dtd"><svg class="icon" width="200px" height="200.00px" viewBox="0 0 1024 1024" version="1.1" xmlns="http://www.w3.org/2000/svg"><path fill="#ffffff" d="M821.333333 883.498667c41.173333 0 74.666667-33.493333 74.666667-74.666667s-33.493333-74.666667-74.666667-74.666667-74.666667 33.493333-74.666666 74.666667 33.493333 74.666667 74.666666 74.666667z m160-362.666667c0 64.469333-12.757333 126.549333-37.845333 184.874667 23.552 27.904 37.845333 63.829333 37.845333 103.125333a160.170667 160.170667 0 0 1-160 160c-35.285333 0-67.84-11.605333-94.293333-31.018667A467.498667 467.498667 0 0 1 512 990.208c-258.773333 0-469.333333-210.56-469.333333-469.333333 0-258.816 210.56-469.333333 469.333333-469.333334v85.333334c-211.712 0-384 172.245333-384 384 0 211.712 172.288 384 384 384a382.805333 382.805333 0 0 0 161.322667-35.498667 158.848 158.848 0 0 1-11.946667-60.544 160.170667 160.170667 0 0 1 160-160c17.365333 0 34.090667 2.901333 49.749333 8.064A380.586667 380.586667 0 0 0 896 520.832c0-53.76-10.837333-105.642667-32.298667-154.325333l78.122667-34.389334c26.24 59.605333 39.509333 123.093333 39.509333 188.714667zM424.832 373.333333l87.722667 87.722667 87.168-87.168 60.330666 60.330667-86.613333 86.613333h87.893333v85.333333H554.666667v106.666667h-85.333334v-106.666667H362.666667v-85.333333h89.002666l-87.168-87.168L424.832 373.333333zM981.76 179.925333h-281.856l76.928-76.885333L716.501333 42.666667l-149.333333 149.333333a42.666667 42.666667 0 0 0 0 60.373333l149.333333 149.333334L776.832 341.333333l-76.074667-76.074666h281.002667v-85.333334z" /></svg>