<?xml version="1.0" standalone="no"?><!DOCTYPE svg PUBLIC "-//W3C//DTD SVG 1.1//EN" "http://www.w3.org/Graphics/SVG/1.1/DTD/svg11.dtd"><svg class="icon" width="200px" height="200.00px" viewBox="0 0 1024 1024" version="1.1" xmlns="http://www.w3.org/2000/svg"><path fill="#ffffff" d="M941.824 323.285333C968.021333 382.848 981.333333 446.378667 981.333333 512c0 258.816-210.56 469.333333-469.333333 469.333333-258.816 0-469.333333-210.517333-469.333333-469.333333S253.184 42.666667 512 42.666667v85.333333c-211.754667 0-384 172.245333-384 384 0 211.712 172.245333 384 384 384 211.712 0 384-172.288 384-384 0-53.76-10.88-105.642667-32.298667-154.368l78.122667-34.346667z m-516.992 41.216l87.68 87.68 87.168-87.125333L660.053333 425.386667 573.44 512H682.666667v85.333333h-128v128h-85.333334v-128H341.333333v-85.333333h110.293334L364.501333 424.832l60.330667-60.330667zM981.333333 173.184h-281.557333l76.842667-73.130667L716.373333 42.666667l-149.162666 141.994666a39.210667 39.210667 0 0 0 0 57.344L716.330667 384l60.288-57.386667L700.586667 254.293333H981.333333V173.184z" /></svg>