<?xml version="1.0" standalone="no"?><!DOCTYPE svg PUBLIC "-//W3C//DTD SVG 1.1//EN" "http://www.w3.org/Graphics/SVG/1.1/DTD/svg11.dtd"><svg class="icon" width="200px" height="190.51px" viewBox="0 0 1075 1024" version="1.1" xmlns="http://www.w3.org/2000/svg"><path fill="#ffffff" d="M810.666667 85.333333a42.666667 42.666667 0 0 1 42.666666 42.666667v426.666667h-85.333333V170.666667H170.666667v640h161.621333v85.333333H128a42.666667 42.666667 0 0 1-42.666667-42.666667V128a42.666667 42.666667 0 0 1 42.666667-42.666667h682.666667zM256 341.333333V256h426.666667v85.333333H256z m0 170.666667v-85.333333h277.333333v85.333333H256zM832 853.333333c35.285333 0 64-28.714667 64-64s-28.714667-64-64-64H810.666667v128h21.333333z m0-213.333333c82.346667 0 149.333333 66.986667 149.333333 149.333333S914.346667 938.666667 832 938.666667H768a42.666667 42.666667 0 0 1-42.666667-42.666667v-213.333333a42.666667 42.666667 0 0 1 42.666667-42.666667h64z m-306.090667 149.333333h57.514667l-18.261333-64h-20.992l-18.261334 64zM597.333333 640a42.666667 42.666667 0 0 1 41.002667 30.933333L714.837333 938.666667h-88.746666l-18.261334-64h-106.325333l-18.261333 64h-88.746667l76.501333-267.733334A42.666667 42.666667 0 0 1 512 640h85.333333z" /></svg>