<?xml version="1.0" standalone="no"?><!DOCTYPE svg PUBLIC "-//W3C//DTD SVG 1.1//EN" "http://www.w3.org/Graphics/SVG/1.1/DTD/svg11.dtd"><svg class="icon" width="200px" height="182.69px" viewBox="0 0 1121 1024" version="1.1" xmlns="http://www.w3.org/2000/svg"><path fill="#ffffff" d="M598.698667 669.866667l217.173333-233.813334L293.632 143.189333 210.602667 287.146667l311.338666 186.965333-43.861333 73.173333-310.186667-186.24-24.405333 42.325334L598.698667 669.866667z m327.424-251.093334a42.666667 42.666667 0 0 1-10.88 35.626667l-277.333334 298.666667a42.666667 42.666667 0 0 1-52.821333 7.765333L63.786667 455.552a42.666667 42.666667 0 0 1-15.36-58.112L240.810667 64a42.581333 42.581333 0 0 1 57.856-15.872l606.165333 339.968c11.392 6.4 19.2 17.664 21.248 30.634667z m11.733333 84.394667l62.890667 57.685333-234.666667 256-62.890667-57.685333 234.666667-256zM210.474667 725.333333H128v-170.666666H42.666667v384h85.333333v-128h106.666667a42.666667 42.666667 0 0 0 36.565333-20.736l64-106.666667-73.173333-43.904L210.474667 725.333333z" /></svg>