<?xml version="1.0" standalone="no"?><!DOCTYPE svg PUBLIC "-//W3C//DTD SVG 1.1//EN" "http://www.w3.org/Graphics/SVG/1.1/DTD/svg11.dtd"><svg class="icon" width="200px" height="191.40px" viewBox="0 0 1070 1024" version="1.1" xmlns="http://www.w3.org/2000/svg"><path fill="#ffffff" d="M1007.402667 704.213333c-18.858667-29.098667-58.752-36.010667-88.746667-18.688l-137.301333 79.232-195.712-108.672-73.941334 42.666667 145.92 137.472-109.013333 62.933333-94.421333-44.032-55.424 32 177.066666 116.906667a42.666667 42.666667 0 0 0 44.8 1.322667l69.546667-40.106667 295.594667-170.666667a64 64 0 0 0 21.632-90.368M213.333333 512h597.333334V170.666667H213.333333v341.333333z m682.666667 42.666667l20.053333 80.256-82.773333 20.693333L810.666667 597.333333H202.837333l-60.928 213.333334H341.333333v85.333333H85.333333a42.624 42.624 0 0 1-41.045333-54.357333L128 548.693333V128a42.666667 42.666667 0 0 1 42.666667-42.666667h682.666666a42.666667 42.666667 0 0 1 42.666667 42.666667v426.666667zM298.666667 384V298.666667h256v85.333333H298.666667z m298.666666 0V298.666667h128v85.333333h-128z" /></svg>