<?xml version="1.0" standalone="no"?><!DOCTYPE svg PUBLIC "-//W3C//DTD SVG 1.1//EN" "http://www.w3.org/Graphics/SVG/1.1/DTD/svg11.dtd"><svg class="icon" width="200px" height="191.04px" viewBox="0 0 1072 1024" version="1.1" xmlns="http://www.w3.org/2000/svg"><path fill="#ffffff" d="M128 170.666667v640h298.666667v85.333333H85.333333a42.666667 42.666667 0 0 1-42.666666-42.666667V128a42.666667 42.666667 0 0 1 42.666666-42.666667h682.666667a42.666667 42.666667 0 0 1 42.666667 42.666667v298.666667h-85.333334V170.666667H128z m85.333333 213.333333V298.666667h384v85.333333H213.333333z m0 170.666667v-85.333334h213.333334v85.333334H213.333333zM973.226667 883.2c0-9.429333-0.682667-18.773333-1.365334-28.074667l-0.128-2.688a397.397333 397.397333 0 0 0-4.309333-34.346666c-0.298667-1.536-0.426667-3.114667-0.725333-4.693334a371.2 371.2 0 0 0-7.082667-30.634666c-0.64-2.432-1.109333-4.906667-1.834667-7.296a376.362667 376.362667 0 0 0-9.088-26.794667c-1.194667-3.2-2.218667-6.528-3.498666-9.728-3.2-7.893333-6.954667-15.573333-10.709334-23.296-1.834667-3.797333-3.456-7.68-5.418666-11.477333-3.797333-7.168-8.149333-14.08-12.416-21.034667-2.389333-3.925333-4.522667-7.978667-7.082667-11.818667-4.778667-7.168-10.112-14.037333-15.36-20.906666-1.749333-2.261333-3.242667-4.608-5.034667-6.826667l31.914667-31.914667-60.330667-60.330666-31.957333 31.914666a380.16 380.16 0 0 0-210.773333-82.730666 394.24 394.24 0 0 0-41.429334-1.109334l0.64 20.565334-8.149333 63.232a469.504 469.504 0 0 1 169.472 90.325333l-235.178667 235.178667 60.330667 60.330666 235.178667-235.178666a469.589333 469.589333 0 0 1 90.325333 169.514666l83.584-10.837333c0.085333-3.114667-0.213333-6.229333-0.213333-9.386667h0.64z" /></svg>