<?xml version="1.0" standalone="no"?><!DOCTYPE svg PUBLIC "-//W3C//DTD SVG 1.1//EN" "http://www.w3.org/Graphics/SVG/1.1/DTD/svg11.dtd"><svg class="icon" width="200px" height="200.00px" viewBox="0 0 1024 1024" version="1.1" xmlns="http://www.w3.org/2000/svg"><path fill="#ffffff" d="M170.666667 170.666667v640h384v85.333333H128a42.666667 42.666667 0 0 1-42.666667-42.666667V128a42.666667 42.666667 0 0 1 42.666667-42.666667h682.666667a42.666667 42.666667 0 0 1 42.666666 42.666667v405.333333h-85.333333V170.666667H170.666667z m153.6 255.786666l97.834666 97.834667 204.501334-204.501333L686.933333 380.16l-234.666666 234.666667a42.496 42.496 0 0 1-60.330667 0l-128-128L324.266667 426.453333zM981.333333 766.165333h-109.226666l107.946666-107.946666-60.330666-60.330667-108.501334 108.458667L702.165333 597.333333l-60.330666 60.330667 108.501333 108.501333H640v85.333334h128v128h85.333333v-128h128z" /></svg>