<?xml version="1.0" standalone="no"?><!DOCTYPE svg PUBLIC "-//W3C//DTD SVG 1.1//EN" "http://www.w3.org/Graphics/SVG/1.1/DTD/svg11.dtd"><svg class="icon" width="200px" height="200.00px" viewBox="0 0 1024 1024" version="1.1" xmlns="http://www.w3.org/2000/svg"><path fill="#ffffff" d="M853.333333 832.682667c-144.213333 4.693333-240.768 32.341333-298.666666 56.490666v-332.288c34.986667-19.2 128-59.605333 298.666666-65.493333v341.333333zM170.666667 491.392c170.965333 5.930667 263.978667 46.464 298.666666 65.450667v332.330666c-57.898667-24.149333-154.453333-51.84-298.666666-56.490666v-341.290667zM896 405.333333c-215.296 0-334.933333 50.346667-384 77.653334-49.066667-27.306667-168.704-77.653333-384-77.653334a42.666667 42.666667 0 0 0-42.666667 42.666667v426.666667a42.666667 42.666667 0 0 0 42.666667 42.666666c253.354667 0 355.328 74.496 357.674667 76.245334 1.450667 1.109333 3.157333 1.621333 4.650666 2.56 1.024 0.597333 1.877333 1.450667 2.986667 1.962666 0.682667 0.341333 1.408 0.426667 2.133333 0.768 1.792 0.768 3.541333 1.450667 5.418667 1.962667a40.234667 40.234667 0 0 0 7.424 1.194667c1.28 0.128 2.432 0.64 3.712 0.64a41.984 41.984 0 0 0 14.634667-2.858667c1.28-0.426667 2.602667-0.725333 3.84-1.322667 1.877333-0.938667 3.413333-2.304 5.12-3.456 0.853333-0.554667 1.834667-0.810667 2.688-1.408C539.306667 992.853333 640.896 917.333333 896 917.333333a42.666667 42.666667 0 0 0 42.666667-42.666666v-426.666667a42.666667 42.666667 0 0 0-42.666667-42.666667zM449.408 156.586667a82.816 82.816 0 0 1 125.184 0c17.194667 19.413333 25.258667 45.610667 22.058667 71.765333l-4.778667 39.381333C586.752 309.674667 552.448 341.333333 512 341.333333c-40.448 0-74.752-31.658667-79.872-73.642666l-4.778667-39.296a91.434667 91.434667 0 0 1 22.058667-71.808z m-101.973333 121.429333C357.674667 362.752 428.458667 426.666667 512 426.666667c83.584 0 154.282667-63.914667 164.565333-148.650667l4.778667-39.338667a176.938667 176.938667 0 0 0-42.88-138.666666A169.344 169.344 0 0 0 512 42.666667a169.386667 169.386667 0 0 0-126.464 57.344 176.981333 176.981333 0 0 0-42.88 138.666666l4.778667 39.296z" /></svg>