<?xml version="1.0" standalone="no"?><!DOCTYPE svg PUBLIC "-//W3C//DTD SVG 1.1//EN" "http://www.w3.org/Graphics/SVG/1.1/DTD/svg11.dtd"><svg class="icon" width="200px" height="200.00px" viewBox="0 0 1024 1024" version="1.1" xmlns="http://www.w3.org/2000/svg"><path fill="#ffffff" d="M853.333333 832.682667v-341.290667c-170.666667 5.888-263.68 46.336-298.666666 65.493333v332.288c57.898667-24.149333 154.453333-51.84 298.666666-56.490666zM170.666667 491.392v341.333333c144.213333 4.608 240.768 32.298667 298.666666 56.448v-332.373333c-34.688-18.944-127.701333-59.477333-298.666666-65.408zM896 405.333333a42.666667 42.666667 0 0 1 42.666667 42.666667v426.666667a42.666667 42.666667 0 0 1-42.666667 42.666666c-255.104 0-356.693333 75.52-357.717333 76.288-0.853333 0.597333-1.834667 0.853333-2.688 1.408-1.706667 1.152-3.242667 2.56-5.12 3.413334-1.237333 0.64-2.56 0.896-3.84 1.365333A41.984 41.984 0 0 1 512 1002.666667c-1.28 0-2.432-0.512-3.712-0.64a40.234667 40.234667 0 0 1-7.424-1.194667 46.336 46.336 0 0 1-5.461333-1.962667c-0.725333-0.298667-1.450667-0.426667-2.133334-0.768-1.066667-0.512-1.877333-1.365333-2.944-2.005333-1.536-0.896-3.242667-1.408-4.650666-2.56C483.328 991.872 381.397333 917.333333 128 917.333333a42.666667 42.666667 0 0 1-42.666667-42.666666v-426.666667a42.666667 42.666667 0 0 1 42.666667-42.666667c215.296 0 334.933333 50.346667 384 77.653334 49.066667-27.306667 168.704-77.653333 384-77.653334zM341.333333 574.293333v87.68a820.778667 820.778667 0 0 0-128-21.632V554.666667c49.237333 4.266667 91.562667 11.306667 128 19.584z m-128 194.133334V682.666667c81.664 7.082667 144.768 21.632 192 37.034666v90.581334c-40.533333-15.701333-103.168-33.493333-192-41.813334zM449.408 156.586667a82.816 82.816 0 0 1 125.184 0c17.194667 19.413333 25.258667 45.610667 22.058667 71.765333l-4.778667 39.381333C586.752 309.674667 552.448 341.333333 512 341.333333c-40.448 0-74.752-31.658667-79.872-73.642666l-4.778667-39.296a91.434667 91.434667 0 0 1 22.058667-71.808z m-101.973333 121.429333C357.674667 362.752 428.458667 426.666667 512 426.666667c83.584 0 154.282667-63.914667 164.565333-148.650667l4.778667-39.338667a176.938667 176.938667 0 0 0-42.88-138.666666A169.344 169.344 0 0 0 512 42.666667a169.386667 169.386667 0 0 0-126.464 57.344 176.981333 176.981333 0 0 0-42.88 138.666666l4.778667 39.296z" /></svg>