<?xml version="1.0" standalone="no"?><!DOCTYPE svg PUBLIC "-//W3C//DTD SVG 1.1//EN" "http://www.w3.org/Graphics/SVG/1.1/DTD/svg11.dtd"><svg class="icon" width="200px" height="191.04px" viewBox="0 0 1072 1024" version="1.1" xmlns="http://www.w3.org/2000/svg"><path fill="#ffffff" d="M640.853333 563.626667v98.986666c0 11.093333-7.68 20.053333-17.066666 20.053334H316.501333c-9.429333 0-17.066667-8.96-17.066666-20.053334v-98.986666c0-8.490667 4.522667-16.085333 11.306666-18.944a405.248 405.248 0 0 1 318.72 0c6.826667 2.858667 11.306667 10.453333 11.306667 18.944zM408.746667 285.312c16.213333-18.901333 37.973333-29.312 61.354666-29.312 23.338667 0 45.141333 10.410667 61.354667 29.312 18.005333 20.992 26.453333 49.706667 23.338667 78.677333l-2.56 23.466667c-5.077333 46.677333-40.362667 81.92-82.133334 81.92-41.770667 0-77.056-35.242667-82.176-81.92l-2.56-23.466667a103.808 103.808 0 0 1 23.381334-78.677333zM170.709333 170.666667v640.085333h384.768v85.333333H128a42.666667 42.666667 0 0 1-42.666667-42.666666V128a42.666667 42.666667 0 0 1 42.666667-42.666667h682.752a42.666667 42.666667 0 0 1 42.666667 42.666667v426.709333h-85.333334v-384H170.666667zM982.186667 768.042667h-128v-128h-85.333334v128h-128v85.333333h128v128h85.333334v-128h128z" /></svg>