<?xml version="1.0" standalone="no"?><!DOCTYPE svg PUBLIC "-//W3C//DTD SVG 1.1//EN" "http://www.w3.org/Graphics/SVG/1.1/DTD/svg11.dtd"><svg class="icon" width="200px" height="166.78px" viewBox="0 0 1228 1024" version="1.1" xmlns="http://www.w3.org/2000/svg"><path fill="#ffffff" d="M597.333333 213.333333h-85.333333v128.768h-85.333333V213.333333H341.333333v128.768H256V213.333333H170.666667v128.768L85.333333 341.333333v85.333334h597.333334V341.333333l-85.333334 0.768zM938.666667 768h-27.648A149.546667 149.546667 0 0 0 768 661.333333a149.546667 149.546667 0 0 0-143.018667 106.666667H399.018667A149.546667 149.546667 0 0 0 256 661.333333 149.546667 149.546667 0 0 0 112.938667 768H85.333333V213.333333h597.333334v320a42.666667 42.666667 0 0 0 23.552 38.186667l85.333333 42.666667 38.229333-76.373334L768 506.965333v-58.410666l170.666667 70.613333V768z m-170.666667 106.666667c-35.285333 0-64-28.714667-64-64s28.714667-64 64-64 64 28.714667 64 64-28.714667 64-64 64z m-512 0c-35.285333 0-64-28.714667-64-64s28.714667-64 64-64 64 28.714667 64 64-28.714667 64-64 64z m741.674667-423.424L768 356.224V170.666667a42.666667 42.666667 0 0 0-42.666667-42.666667H42.666667a42.666667 42.666667 0 0 0-42.666667 42.666667v640a42.666667 42.666667 0 0 0 42.666667 42.666666h70.272A149.546667 149.546667 0 0 0 256 960 149.546667 149.546667 0 0 0 399.018667 853.333333h225.962666A149.546667 149.546667 0 0 0 768 960a149.546667 149.546667 0 0 0 143.018667-106.666667H981.333333a42.666667 42.666667 0 0 0 42.666667-42.666666v-320a42.624 42.624 0 0 0-26.325333-39.424z" /></svg>