<?xml version="1.0" standalone="no"?><!DOCTYPE svg PUBLIC "-//W3C//DTD SVG 1.1//EN" "http://www.w3.org/Graphics/SVG/1.1/DTD/svg11.dtd"><svg class="icon" width="200px" height="191.04px" viewBox="0 0 1072 1024" version="1.1" xmlns="http://www.w3.org/2000/svg"><path fill="#ffffff" d="M597.333333 510.165333h-128v128H384v-128H256v-85.333333h110.336L257.834667 316.330667 318.165333 256l109.056 109.013333 108.501334-108.458666 60.330666 60.288-107.946666 107.989333H597.333333v85.333333zM128 170.666667v640h298.666667v85.333333H85.333333a42.666667 42.666667 0 0 1-42.666666-42.666667V128a42.666667 42.666667 0 0 1 42.666666-42.666667h682.666667a42.666667 42.666667 0 0 1 42.666667 42.666667v298.666667h-85.333334V170.666667H128zM853.333333 535.082667v145.834666L746.666667 725.333333 640 680.917333v-145.834666l106.666667-44.416 106.666666 44.416z m-341.333333 234.666666L618.666667 725.333333l106.666666 44.416v145.834667L618.666667 960 512 915.584v-145.834667zM874.666667 725.333333l106.666666 44.416v145.834667L874.666667 960 768 915.584v-145.834667L874.666667 725.333333z" /></svg>