<?xml version="1.0" standalone="no"?><!DOCTYPE svg PUBLIC "-//W3C//DTD SVG 1.1//EN" "http://www.w3.org/Graphics/SVG/1.1/DTD/svg11.dtd"><svg class="icon" width="200px" height="200.00px" viewBox="0 0 1024 1024" version="1.1" xmlns="http://www.w3.org/2000/svg"><path fill="#ffffff" d="M170.666667 256h597.333333V170.666667H170.666667v85.333333z m0 85.333333h682.666666V128a42.666667 42.666667 0 0 0-42.666666-42.666667H128a42.666667 42.666667 0 0 0-42.666667 42.666667v725.333333a42.666667 42.666667 0 0 0 42.666667 42.666667h426.666667v-85.333333H170.666667V341.333333zM846.037333 874.453333c18.218667-16.213333 28.629333-39.466667 28.629334-63.786666 0-25.941333-11.648-50.218667-32.042667-66.517334A84.693333 84.693333 0 0 1 810.666667 677.76V512a21.333333 21.333333 0 0 0-42.666667 0v165.717333c0 25.856-11.776 50.176-32.341333 66.688a85.162667 85.162667 0 0 0-30.549334 80.213334c5.674667 36.693333 36.693333 66.389333 73.728 70.741333a84.650667 84.650667 0 0 0 67.2-20.906667zM896 677.546667A169.898667 169.898667 0 0 1 960 810.666667c0 48.64-20.906667 95.146667-57.258667 127.530666a171.093333 171.093333 0 0 1-133.845333 41.898667 170.24 170.24 0 0 1-148.138667-142.378667 169.642667 169.642667 0 0 1 61.312-159.658666L682.666667 512c0-58.794667 47.872-106.666667 106.666666-106.666667 58.837333 0 106.666667 47.872 106.666667 106.666667v165.546667zM789.333333 768a42.666667 42.666667 0 1 1 0 85.333333 42.666667 42.666667 0 0 1 0-85.333333z" /></svg>