<?xml version="1.0" standalone="no"?><!DOCTYPE svg PUBLIC "-//W3C//DTD SVG 1.1//EN" "http://www.w3.org/Graphics/SVG/1.1/DTD/svg11.dtd"><svg class="icon" width="200px" height="174.00px" viewBox="0 0 1177 1024" version="1.1" xmlns="http://www.w3.org/2000/svg"><path fill="#ffffff" d="M85.333333 85.333333h810.581334a42.666667 42.666667 0 0 1 42.666666 42.666667v384h-85.333333V170.666667H128v597.290666L469.333333 768v85.333333l-384-0.085333a42.666667 42.666667 0 0 1-42.666666-42.666667V128a42.666667 42.666667 0 0 1 42.666666-42.666667z m405.333334 324.906667l246.613333-128.128 39.338667 75.733333-266.325334 138.325334a42.453333 42.453333 0 0 1-39.338666 0L204.629333 357.845333l39.338667-75.733333L490.666667 410.24zM727.637333 938.666667a40.704 40.704 0 0 1-29.013333-12.202667L554.666667 780.928l58.154666-58.837333 114.816 116.181333L965.845333 597.333333 1024 656.128l-267.264 270.336a40.704 40.704 0 0 1-29.098667 12.202667" /></svg>