<?xml version="1.0" standalone="no"?><!DOCTYPE svg PUBLIC "-//W3C//DTD SVG 1.1//EN" "http://www.w3.org/Graphics/SVG/1.1/DTD/svg11.dtd"><svg class="icon" width="200px" height="182.69px" viewBox="0 0 1121 1024" version="1.1" xmlns="http://www.w3.org/2000/svg"><path fill="#ffffff" d="M128 298.666667h725.333333V170.666667H128v128z m0 85.333333v384h341.333333v85.333333H85.333333a42.666667 42.666667 0 0 1-42.666666-42.666666V128a42.666667 42.666667 0 0 1 42.666666-42.666667h810.666667a42.666667 42.666667 0 0 1 42.666667 42.666667v341.333333h-85.333334V384H128z m85.333333 170.666667v-85.333334h170.666667v85.333334H213.333333z m0 128v-85.333334h256v85.333334H213.333333zM734.165333 673.834667l55.168 55.168 161.834667-161.834667 60.330667 60.330667-192 192a42.496 42.496 0 0 1-60.330667 0l-85.333333-85.333334 60.330666-60.330666zM938.666667 746.666667h85.333333c0 129.365333-105.301333 234.666667-234.666667 234.666666a234.922667 234.922667 0 0 1-234.666666-234.666666c0-129.408 105.258667-234.666667 234.666666-234.666667 37.589333 0 75.008 9.088 108.16 26.325333l-39.381333 75.733334A149.504 149.504 0 0 0 640 746.666667c0 82.346667 66.986667 149.333333 149.333333 149.333333s149.333333-66.986667 149.333334-149.333333z" /></svg>