<?xml version="1.0" standalone="no"?><!DOCTYPE svg PUBLIC "-//W3C//DTD SVG 1.1//EN" "http://www.w3.org/Graphics/SVG/1.1/DTD/svg11.dtd"><svg class="icon" width="200px" height="182.69px" viewBox="0 0 1121 1024" version="1.1" xmlns="http://www.w3.org/2000/svg"><path fill="#ffffff" d="M128 298.666667h725.333333V170.666667H128v128z m0 85.333333v384h341.333333v85.333333H85.333333a42.666667 42.666667 0 0 1-42.666666-42.666666V128a42.666667 42.666667 0 0 1 42.666666-42.666667h810.666667a42.666667 42.666667 0 0 1 42.666667 42.666667v341.333333h-85.333334V384H128z m85.333333 170.666667v-85.333334h170.666667v85.333334H213.333333z m0 128v-85.333334h256v85.333334H213.333333zM789.333333 896a148.266667 148.266667 0 0 1-70.997333-18.005333l202.325333-202.325334c11.477333 21.12 18.005333 45.312 18.005334 70.997334 0 82.346667-66.986667 149.333333-149.333334 149.333333m0-298.666667c25.685333 0 49.877333 6.528 70.997334 18.005334l-202.325334 202.325333A148.266667 148.266667 0 0 1 640 746.666667c0-82.346667 66.986667-149.333333 149.333333-149.333334m0-85.333333a234.922667 234.922667 0 0 0-234.666666 234.666667c0 129.365333 105.258667 234.666667 234.666666 234.666666 129.365333 0 234.666667-105.301333 234.666667-234.666666 0-129.408-105.301333-234.666667-234.666667-234.666667" /></svg>