<?xml version="1.0" standalone="no"?><!DOCTYPE svg PUBLIC "-//W3C//DTD SVG 1.1//EN" "http://www.w3.org/Graphics/SVG/1.1/DTD/svg11.dtd"><svg class="icon" width="200px" height="200.00px" viewBox="0 0 1024 1024" version="1.1" xmlns="http://www.w3.org/2000/svg"><path fill="#ffffff" d="M170.666667 896h213.333333v-341.333333H170.666667v341.333333z m256 85.333333H128a42.666667 42.666667 0 0 1-42.666667-42.666666V512a42.666667 42.666667 0 0 1 42.666667-42.666667h298.666667a42.666667 42.666667 0 0 1 42.666666 42.666667v426.666667a42.666667 42.666667 0 0 1-42.666666 42.666666zM938.666667 42.666667a42.666667 42.666667 0 0 1 42.666666 42.666666v426.666667a42.666667 42.666667 0 0 1-42.666666 42.666667h-298.666667a42.666667 42.666667 0 0 1-42.666667-42.666667V85.333333a42.666667 42.666667 0 0 1 42.666667-42.666666h298.666667zM558.976 951.808L554.666667 866.602667A385.066667 385.066667 0 0 0 901.589333 597.333333l83.413334 12.672v235.776h-85.333334v-67.584a470.485333 470.485333 0 0 1-340.693333 173.653334zM167.936 419.754667L85.333333 404.693333V192h85.333334v58.24C258.389333 147.925333 388.394667 85.333333 527.573333 85.333333v85.333334a385.92 385.92 0 0 0-359.68 249.045333z" /></svg>