<?xml version="1.0" standalone="no"?><!DOCTYPE svg PUBLIC "-//W3C//DTD SVG 1.1//EN" "http://www.w3.org/Graphics/SVG/1.1/DTD/svg11.dtd"><svg class="icon" width="200px" height="166.78px" viewBox="0 0 1228 1024" version="1.1" xmlns="http://www.w3.org/2000/svg"><path fill="#ffffff" d="M845.354667 489.130667c-1.322667 137.002667-9.130667 217.386667-14.506667 257.493333H177.536c-5.418667-40.149333-13.226667-120.533333-14.506667-257.450667 0-1.834667 0.170667-3.626667 0.213334-5.418666 85.546667 14.762667 201.386667 28.245333 340.949333 28.245333s255.36-13.482667 340.906667-28.245333c0 1.792 0.213333 3.584 0.213333 5.376zM264.533333 194.474667c7.168-14.506667 22.058667-23.808 38.272-23.808h402.773334c16.213333 0 31.146667 9.301333 38.272 23.808l80.213333 206.208c-80.938667 13.653333-189.781333 25.984-319.829333 25.984a1930.24 1930.24 0 0 1-319.786667-26.069334L264.533333 194.474667z m743.893334 251.306666l-27.136-80.896c-0.682667 0.213333-26.197333 8.533333-72.234667 19.072l-86.186667-221.866666A128.341333 128.341333 0 0 0 705.578667 85.333333l-402.773334 0.042667a128.341333 128.341333 0 0 0-116.266666 74.410667L185.6 162.133333 99.413333 383.872a889.386667 889.386667 0 0 1-72.234666-18.986667L0 445.781333c2.944 0.981333 30.506667 10.026667 78.634667 21.077334-0.64 7.68-0.938667 15.36-0.853334 23.125333 2.005333 215.296 19.669333 298.154667 22.101334 308.48l21.162666 105.898667a42.666667 42.666667 0 0 0 41.813334 34.261333h106.666666a42.666667 42.666667 0 0 0 42.666667-42.666667v-64h384V896a42.666667 42.666667 0 0 0 42.666667 42.666667h106.666666a42.666667 42.666667 0 0 0 41.813334-34.261334l21.205333-105.898666c2.389333-10.325333 20.053333-93.184 22.144-308.48a267.605333 267.605333 0 0 0-0.853333-23.125334 924.16 924.16 0 0 0 78.592-21.077333zM396.458667 658.602667a2013.354667 2013.354667 0 0 1-175.274667-16.554667l11.776-84.48c54.485333 7.594667 110.933333 12.928 167.850667 15.786667l-4.352 85.248z m216.32-0.042667l-4.394667-85.205333a1935.061333 1935.061333 0 0 0 167.765333-15.872l11.818667 84.48c-56.746667 7.978667-115.669333 13.525333-175.232 16.597333z" /></svg>