<?xml version="1.0" standalone="no"?><!DOCTYPE svg PUBLIC "-//W3C//DTD SVG 1.1//EN" "http://www.w3.org/Graphics/SVG/1.1/DTD/svg11.dtd"><svg class="icon" width="200px" height="191.04px" viewBox="0 0 1072 1024" version="1.1" xmlns="http://www.w3.org/2000/svg"><path fill="#ffffff" d="M128 170.666667v597.333333h341.333333v85.333333H85.333333a42.666667 42.666667 0 0 1-42.666666-42.666666V128a42.666667 42.666667 0 0 1 42.666666-42.666667h810.666667a42.666667 42.666667 0 0 1 42.666667 42.666667v384h-85.333334V170.666667H128z m609.365333 111.488l39.338667 75.690666-266.368 138.368a42.368 42.368 0 0 1-39.338667 0L204.629333 357.845333l39.338667-75.690666L490.666667 410.282667l246.698666-128.128zM768 768h-17.706667c-12.928 0-24.362667-9.216-24.96-20.096a21.333333 21.333333 0 0 1 21.333334-22.570667h21.333333v42.666667z m142.293333-189.568a231.082667 231.082667 0 0 0-170.24-66.346667c-122.282667 3.413333-224.554667 105.642667-227.925333 227.925334a232.96 232.96 0 0 0 66.304 170.282666A232.832 232.832 0 0 0 746.666667 981.333333c36.608 0 73.045333-8.661333 105.514666-25.045333l-38.4-76.16c-20.906667 10.538667-43.52 15.872-67.114666 15.872a148.266667 148.266667 0 0 1-107.050667-45.226667 148.266667 148.266667 0 0 1-42.24-108.373333c2.176-77.781333 67.2-142.848 145.066667-144.981333A149.418667 149.418667 0 0 1 896 746.666667c0 11.434667-5.333333 26.410667-15.104 42.069333-3.669333 5.930667-9.088 7.936-16.085333 5.930667-4.266667-1.28-11.477333-4.821333-11.477334-14.890667V682.666667a42.666667 42.666667 0 0 0-42.666666-42.666667h-64c-29.098667 0-57.301333 12.117333-77.354667 33.237333a105.813333 105.813333 0 0 0-29.141333 79.104C643.114667 809.002667 691.498667 853.333333 750.293333 853.333333h49.493334c11.434667 10.666667 25.557333 18.773333 41.6 23.338667a98.730667 98.730667 0 0 0 111.957333-42.88c18.346667-29.44 27.989333-59.562667 27.989333-87.125333a232.832 232.832 0 0 0-71.04-168.234667z" /></svg>