<?xml version="1.0" standalone="no"?><!DOCTYPE svg PUBLIC "-//W3C//DTD SVG 1.1//EN" "http://www.w3.org/Graphics/SVG/1.1/DTD/svg11.dtd"><svg class="icon" width="200px" height="191.40px" viewBox="0 0 1070 1024" version="1.1" xmlns="http://www.w3.org/2000/svg"><path fill="#ffffff" d="M843.349333 339.712C776.533333 209.152 642.730667 128 494.208 128 345.6 128 211.882667 209.066667 145.066667 339.626667l-77.525334-38.357334C149.205333 141.781333 312.661333 42.666667 494.208 42.666667c181.504 0 345.002667 99.114667 426.666667 258.645333l-77.525334 38.4z m-348.032 641.706667c-182.826667 0-346.752-100.266667-427.776-261.632l77.738667-37.802667c66.304 132.053333 200.448 214.101333 350.037333 214.101333 147.84 0 281.258667-80.64 348.245334-210.474666l77.312 38.613333c-81.834667 158.677333-244.906667 257.194667-425.557334 257.194667zM899.285333 384l-37.461333 105.813333-27.349333-102.997333h-79.573334l-27.306666 102.997333L690.090667 384h-77.781334l-37.461333 105.813333-27.306667-102.997333h-79.573333l-27.349333 102.997333L403.157333 384H325.376l-37.504 105.813333-27.306667-102.997333H180.992l-27.306667 102.997333L116.138667 384 38.4 408.448 120.405333 640l78.634667-2.858667 21.76-81.792 21.674667 81.792L321.152 640l43.093333-121.728L407.338667 640l78.677333-2.858667 21.717333-81.792 21.717334 81.792 78.677333 2.858667 43.093333-121.728L694.314667 640l78.677333-2.858667 21.674667-81.792 21.76 81.792 78.634666 2.858667L977.066667 408.448z" /></svg>