<?xml version="1.0" standalone="no"?><!DOCTYPE svg PUBLIC "-//W3C//DTD SVG 1.1//EN" "http://www.w3.org/Graphics/SVG/1.1/DTD/svg11.dtd"><svg class="icon" width="200px" height="200.00px" viewBox="0 0 1024 1024" version="1.1" xmlns="http://www.w3.org/2000/svg"><path fill="#ffffff" d="M170.666667 170.666667v640h298.24v85.333333H128a42.666667 42.666667 0 0 1-42.666667-42.666667V128a42.666667 42.666667 0 0 1 42.666667-42.666667h682.666667a42.666667 42.666667 0 0 1 42.666666 42.666667v384h-85.333333V170.666667H170.666667z m85.333333 170.666666V256h426.666667v85.333333H256z m0 170.666667v-85.333333h213.333333v85.333333H256zM938.666667 640v-85.333333H512v85.333333h192v214.144H640V682.666667h-85.333333v171.477333h-42.666667v85.333333h426.666667v-85.333333h-149.333334V768h128v-85.333333h-128v-42.666667z" /></svg>