<?xml version="1.0" standalone="no"?><!DOCTYPE svg PUBLIC "-//W3C//DTD SVG 1.1//EN" "http://www.w3.org/Graphics/SVG/1.1/DTD/svg11.dtd"><svg class="icon" width="200px" height="191.04px" viewBox="0 0 1072 1024" version="1.1" xmlns="http://www.w3.org/2000/svg"><path fill="#ffffff" d="M128 170.666667v640h341.333333v85.333333H85.333333a42.666667 42.666667 0 0 1-42.666666-42.666667V128a42.666667 42.666667 0 0 1 42.666666-42.666667h682.666667a42.666667 42.666667 0 0 1 42.666667 42.666667v298.666667h-85.333334V170.666667H128z m85.333333 213.333333V298.666667h384v85.333333H213.333333z m0 170.666667v-85.333334h213.333334v85.333334H213.333333zM768 513.194667s-118.485333 47.402667-213.333333 47.402666v189.696c0 114.645333 91.605333 210.304 213.333333 232.234667 121.728-21.930667 213.333333-117.589333 213.333333-232.234667v-189.696c-94.848 0-213.333333-47.36-213.333333-47.36" /></svg>